<svg width="634" height="634" viewBox="0 0 634 634" fill="none" xmlns="http://www.w3.org/2000/svg">
<path d="M296.463 187.336C382.873 173.65 463.386 175.824 523.698 190.385C553.855 197.666 578.936 208.038 597.177 221.051C615.416 234.063 626.783 249.69 629.602 267.489C632.421 285.288 626.439 303.663 613.114 321.674C599.787 339.687 579.139 357.302 552.708 373.545C499.848 406.031 423.947 432.979 337.536 446.665C251.126 460.351 170.613 458.177 110.301 443.616C80.1439 436.335 55.0628 425.963 36.822 412.95C18.5832 399.938 7.21557 384.311 4.39654 366.512C1.57752 348.713 7.55972 330.338 20.885 312.327C34.2116 294.314 54.8601 276.699 81.2912 260.456C134.151 227.97 210.052 201.022 296.463 187.336Z" stroke="url(#paint0_linear_83_2088)"/>
<path d="M298.729 186.997C385.365 174.821 465.828 178.401 525.876 194.012C555.902 201.818 580.798 212.626 598.809 225.956C616.818 239.284 627.911 255.107 630.419 272.952C632.927 290.797 626.625 309.065 612.987 326.841C599.348 344.619 578.396 361.871 551.685 377.65C498.266 409.209 421.907 434.828 335.27 447.004C248.634 459.18 168.171 455.601 108.123 439.989C78.0973 432.183 53.201 421.375 35.1901 408.045C17.1812 394.717 6.08799 378.894 3.58003 361.049C1.07206 343.204 7.37404 324.936 21.0116 307.16C34.6506 289.382 55.6034 272.131 82.3139 256.351C135.733 224.792 212.092 199.173 298.729 186.997Z" stroke="url(#paint1_linear_83_2088)"/>
<path d="M301 186.698C387.836 176.036 468.224 181.019 527.991 197.676C557.875 206.005 582.579 217.246 600.355 230.888C618.128 244.528 628.944 260.543 631.14 278.429C633.336 296.315 626.716 314.47 612.77 332.005C598.823 349.542 577.572 366.425 550.591 381.737C496.629 412.358 419.834 436.641 332.998 447.303C246.163 457.965 165.775 452.982 106.008 436.325C76.1233 427.996 51.4194 416.755 33.6439 403.113C15.8703 389.472 5.05501 373.458 2.85887 355.572C0.662726 337.686 7.28256 319.531 21.2283 301.996C35.1755 284.459 56.4261 267.575 83.408 252.264C137.37 221.643 214.165 197.36 301 186.698Z" stroke="url(#paint2_linear_83_2088)"/>
<path d="M303.277 186.439C390.286 177.294 470.575 183.679 530.042 201.377C559.777 210.226 584.28 221.896 601.815 235.846C619.348 249.795 629.882 265.995 631.766 283.917C633.649 301.839 626.714 319.876 612.464 337.165C598.213 354.456 576.671 370.966 549.426 385.804C494.938 415.479 417.731 438.417 330.723 447.562C243.714 456.707 163.425 450.322 103.958 432.624C74.2236 423.775 49.7197 412.105 32.185 398.155C14.6522 384.206 4.11798 368.005 2.23433 350.084C0.350675 332.162 7.28636 314.125 21.536 296.836C35.7871 279.545 57.3292 263.035 84.5742 248.197C139.062 218.522 216.269 195.584 303.277 186.439Z" stroke="url(#paint3_linear_83_2088)"/>
<path d="M305.558 186.219C392.713 178.594 472.878 186.38 532.027 205.112C561.603 214.479 585.899 226.575 603.188 240.829C620.475 255.082 630.725 271.464 632.295 289.416C633.866 307.368 626.616 325.281 612.067 342.318C597.516 359.358 575.689 375.489 548.19 389.85C493.192 418.569 415.597 440.157 328.442 447.782C241.287 455.407 161.122 447.622 101.973 428.889C72.397 419.522 48.1004 407.426 30.8119 393.172C13.5252 378.919 3.27532 362.537 1.70473 344.585C0.134142 326.633 7.38355 308.72 21.9327 291.683C36.4835 274.643 58.3104 258.512 85.8102 244.151C140.808 215.432 218.403 193.844 305.558 186.219Z" stroke="url(#paint4_linear_83_2088)"/>
<path d="M307.842 186.039C395.117 179.936 475.134 189.12 533.947 208.882C563.355 218.764 587.437 231.282 604.474 245.836C621.509 260.388 631.471 276.946 632.729 294.923C633.986 312.899 626.425 330.683 611.58 347.464C596.734 364.247 574.629 379.995 546.883 393.873C491.393 421.629 413.432 441.859 326.158 447.962C238.883 454.065 158.866 444.881 100.053 425.119C70.645 415.237 46.5633 402.719 29.5261 388.165C12.4908 373.613 2.52838 357.055 1.27133 339.078C0.0142898 321.102 7.57522 303.318 22.4195 286.537C37.2654 269.754 59.3706 254.006 87.1168 240.128C142.607 212.372 220.568 192.142 307.842 186.039Z" stroke="url(#paint5_linear_83_2088)"/>
<path d="M310.129 185.899C397.496 181.32 477.341 191.899 535.8 212.685C565.031 223.078 588.891 236.015 605.671 250.863C622.45 265.71 632.122 282.44 633.065 300.436C634.008 318.432 626.138 336.081 611.003 352.6C595.867 369.122 573.49 384.482 545.506 397.873C489.539 424.656 411.238 443.523 323.87 448.101C236.502 452.68 156.657 442.102 98.1981 421.316C68.9674 410.923 45.1078 397.986 28.3272 383.137C11.5484 368.29 1.87656 351.56 0.93344 333.565C-0.00967869 315.569 7.86047 297.92 22.9954 281.4C38.1319 264.879 60.5085 249.519 88.4928 236.127C144.459 209.345 222.761 190.478 310.129 185.899Z" stroke="url(#paint6_linear_83_2088)"/>
<path d="M312.418 185.799C399.853 182.746 479.501 194.716 537.588 216.519C566.633 227.421 590.264 240.772 606.782 255.911C623.299 271.049 632.678 287.945 633.307 305.954C633.936 323.964 625.759 341.473 610.338 357.726C594.915 373.981 572.274 388.948 544.06 401.849C487.635 427.651 409.016 445.148 321.582 448.201C234.147 451.254 154.499 439.284 96.4117 417.481C67.3668 406.579 43.7366 393.228 27.2177 378.089C10.7006 362.951 1.32219 346.055 0.693281 328.046C0.0643756 310.036 8.24135 292.527 23.6623 276.274C39.0848 260.02 61.7261 245.053 89.9398 232.151C146.365 206.349 224.984 188.852 312.418 185.799Z" stroke="url(#paint7_linear_83_2088)"/>
<path d="M314.708 185.739C402.183 184.212 481.61 197.571 539.308 220.384C568.158 231.791 591.552 245.553 607.804 260.978C624.054 276.401 633.136 293.459 633.451 311.476C633.765 329.494 625.284 346.858 609.582 362.839C593.878 378.822 570.979 393.392 542.544 405.799C485.678 430.612 406.765 446.734 319.291 448.261C231.816 449.788 152.389 436.429 94.6911 413.616C65.8409 402.209 42.4474 388.447 26.1952 373.022C9.94482 357.599 0.862703 340.541 0.548202 322.524C0.233702 304.506 8.715 287.142 24.4172 271.161C40.1211 255.178 63.0202 240.608 91.4547 228.201C148.322 203.388 227.234 187.266 314.708 185.739Z" stroke="url(#paint8_linear_83_2088)"/>
<path d="M317 185.719C404.488 185.719 483.669 200.462 540.961 224.279C569.607 236.188 592.757 250.355 608.738 266.062C624.717 281.767 633.5 298.98 633.5 317C633.5 335.021 624.717 352.234 608.738 367.939C592.757 383.645 569.607 397.813 540.961 409.722C483.669 433.539 404.488 448.281 317 448.281C229.512 448.281 150.331 433.539 93.0393 409.722C64.3925 397.813 41.2427 383.645 25.2622 367.939C9.28348 352.234 0.500435 335.021 0.500435 317C0.500435 298.98 9.28348 281.767 25.2622 266.062C41.2427 250.355 64.3925 236.188 93.0393 224.279C150.331 200.462 229.512 185.719 317 185.719Z" stroke="url(#paint9_linear_83_2088)"/>
<path d="M319.291 185.739C406.765 187.266 485.678 203.389 542.544 228.202C570.979 240.609 593.878 255.178 609.582 271.161C625.284 287.143 633.766 304.506 633.451 322.524C633.137 340.542 624.054 357.599 607.804 373.023C591.552 388.448 568.158 402.209 539.308 413.616C481.61 436.43 402.183 449.788 314.708 448.261C227.234 446.735 148.322 430.612 91.4548 405.799C63.0203 393.392 40.1212 378.823 24.4173 362.839C8.7151 346.858 0.233802 329.494 0.548303 311.477C0.862803 293.459 9.94492 276.402 26.1953 260.978C42.4475 245.553 65.841 231.792 94.6912 220.384C152.389 197.571 231.816 184.213 319.291 185.739Z" stroke="url(#paint10_linear_83_2088)"/>
<path d="M321.581 185.799C409.016 188.852 487.635 206.349 544.06 232.151C572.274 245.053 594.915 260.02 610.338 276.274C625.759 292.527 633.935 310.036 633.307 328.046C632.678 346.055 623.299 362.951 606.782 378.089C590.263 393.228 566.633 406.579 537.588 417.481C479.501 439.284 399.853 451.254 312.418 448.201C224.984 445.148 146.365 427.651 89.9396 401.849C61.7259 388.948 39.0846 373.981 23.662 357.726C8.24112 341.473 0.064153 323.964 0.693058 305.954C1.32196 287.945 10.7004 271.049 27.2175 255.911C43.7364 240.772 67.3665 227.421 96.4114 216.519C154.499 194.716 234.147 182.746 321.581 185.799Z" stroke="url(#paint11_linear_83_2088)"/>
<path d="M323.871 185.899C411.238 190.478 489.54 209.344 545.506 236.127C573.49 249.519 595.867 264.878 611.004 281.4C626.139 297.919 634.009 315.568 633.066 333.564C632.122 351.56 622.451 368.29 605.672 383.137C588.891 397.986 565.032 410.922 535.801 421.316C477.342 442.101 397.497 452.68 310.129 448.101C222.761 443.522 144.46 424.656 88.4933 397.873C60.5091 384.481 38.1325 369.122 22.9959 352.6C7.86103 336.081 -0.00911655 318.431 0.934002 300.436C1.87712 282.44 11.549 265.71 28.3278 250.863C45.1083 236.014 68.9679 223.078 98.1987 212.684C156.658 191.899 236.503 181.32 323.871 185.899Z" stroke="url(#paint12_linear_83_2088)"/>
<path d="M326.158 186.039C413.432 192.141 491.393 212.372 546.883 240.127C574.629 254.005 596.735 269.753 611.58 286.536C626.425 303.317 633.986 321.101 632.729 339.078C631.472 357.054 621.509 373.613 604.474 388.165C587.437 402.718 563.355 415.236 533.947 425.118C475.134 444.88 395.117 454.064 307.842 447.961C220.568 441.858 142.607 421.628 87.1169 393.873C59.3707 379.994 37.2655 364.246 22.4196 347.463C7.5753 330.682 0.0143666 312.898 1.27141 294.922C2.52846 276.945 12.4908 260.387 29.5262 245.835C46.5633 231.281 70.6451 218.763 100.053 208.881C158.866 189.119 238.883 179.936 326.158 186.039Z" stroke="url(#paint13_linear_83_2088)"/>
<path d="M328.442 186.219C415.596 193.844 493.192 215.432 548.189 244.151C575.689 258.511 597.516 274.643 612.067 291.682C626.616 308.72 633.866 326.633 632.295 344.585C630.724 362.537 620.475 378.919 603.188 393.171C585.899 407.425 561.603 419.521 532.027 428.888C472.878 447.621 392.713 455.407 305.558 447.782C218.403 440.157 140.808 418.569 85.8101 389.849C58.3103 375.489 36.4833 359.358 21.9326 342.318C7.38341 325.28 0.134 307.367 1.70459 289.415C3.27518 271.463 13.525 255.081 30.8117 240.829C48.1003 226.575 72.3968 214.479 101.972 205.112C161.121 186.379 241.287 178.594 328.442 186.219Z" stroke="url(#paint14_linear_83_2088)"/>
<path d="M330.722 186.438C417.731 195.583 494.938 218.522 549.425 248.197C576.67 263.035 598.213 279.545 612.464 296.836C626.713 314.125 633.649 332.162 631.765 350.083C629.882 368.005 619.347 384.206 601.815 398.154C584.28 412.105 559.776 423.775 530.041 432.624C470.574 450.322 390.285 456.707 303.277 447.562C216.269 438.417 139.062 415.478 84.5737 385.803C57.3287 370.965 35.7866 354.456 21.5354 337.165C7.28584 319.876 0.350157 301.839 2.23381 283.917C4.11746 265.995 14.6516 249.795 32.1845 235.846C49.7192 221.896 74.2231 210.226 103.958 201.376C163.425 183.679 243.714 177.293 330.722 186.438Z" stroke="url(#paint15_linear_83_2088)"/>
<path d="M332.999 186.698C419.834 197.36 496.629 221.642 550.591 252.264C577.573 267.575 598.824 284.458 612.771 301.995C626.717 319.53 633.336 337.686 631.14 355.572C628.944 373.458 618.129 389.472 600.355 403.113C582.58 416.755 557.876 427.995 527.991 436.324C468.224 452.982 387.836 457.965 301.001 447.303C214.165 436.64 137.37 412.358 83.4085 381.736C56.4266 366.425 35.1759 349.542 21.2287 332.005C7.28305 314.47 0.663213 296.315 2.85936 278.428C5.0555 260.542 15.8708 244.528 33.6444 230.888C51.4199 217.246 76.1238 206.005 106.008 197.676C165.775 181.019 246.163 176.036 332.999 186.698Z" stroke="url(#paint16_linear_83_2088)"/>
<path d="M335.271 186.997C421.907 199.173 498.266 224.792 551.685 256.35C578.396 272.13 599.349 289.382 612.988 307.16C626.625 324.935 632.927 343.203 630.419 361.048C627.911 378.893 616.818 394.717 598.809 408.045C580.798 421.375 555.902 432.182 525.877 439.989C465.828 455.6 385.365 459.179 298.729 447.004C212.093 434.828 135.733 409.208 82.3144 377.65C55.6039 361.87 34.6511 344.618 21.0121 326.841C7.37455 309.065 1.07257 290.797 3.58054 272.952C6.0885 255.107 17.1817 239.284 35.1906 225.955C53.2015 212.626 78.0978 201.818 108.123 194.012C168.171 178.4 248.634 174.821 335.271 186.997Z" stroke="url(#paint17_linear_83_2088)"/>
<path d="M337.536 187.335C423.947 201.021 499.848 227.969 552.708 260.455C579.139 276.699 599.787 294.314 613.114 312.327C626.439 330.338 632.422 348.713 629.603 366.511C626.783 384.31 615.416 399.937 597.177 412.949C578.936 425.962 553.855 436.334 523.698 443.615C463.386 458.176 382.873 460.351 296.463 446.665C210.052 432.979 134.151 406.031 81.2913 373.545C54.8602 357.301 34.2117 339.686 20.8851 321.673C7.55982 303.662 1.57762 285.287 4.39665 267.489C7.21567 249.69 18.5833 234.063 36.8221 221.051C55.0629 208.038 80.144 197.666 110.301 190.385C170.613 175.824 251.126 173.649 337.536 187.335Z" stroke="url(#paint18_linear_83_2088)"/>
<path d="M339.797 187.714C425.955 202.906 501.374 231.174 553.659 264.578C579.803 281.28 600.141 299.252 613.151 317.495C626.16 335.736 631.821 354.213 628.691 371.96C625.562 389.706 613.924 405.133 595.46 417.824C576.995 430.517 551.737 440.45 521.458 447.203C460.901 460.71 380.362 461.479 294.203 446.287C208.045 431.095 132.626 402.826 80.341 369.422C54.1974 352.72 33.8595 334.748 20.8492 316.505C7.84034 298.264 2.17974 279.787 5.30896 262.04C8.43818 244.294 20.0768 228.867 38.5399 216.176C57.005 203.483 82.2633 193.55 112.543 186.797C173.099 173.29 253.638 172.521 339.797 187.714Z" stroke="url(#paint19_linear_83_2088)"/>
<path d="M342.049 188.131C427.929 204.825 502.843 234.405 554.537 268.716C580.386 285.872 600.407 304.197 613.097 322.664C625.785 341.129 631.122 359.702 627.684 377.391C624.246 395.081 612.339 410.302 593.658 422.669C574.974 435.038 549.546 444.528 519.153 450.752C458.37 463.2 377.83 462.563 291.95 445.869C206.07 429.176 131.156 399.595 79.4614 365.285C53.6133 348.128 33.5921 329.804 20.9022 311.337C8.21363 292.871 2.87636 274.299 6.31483 256.609C9.75329 238.92 21.6594 223.699 40.3412 211.332C59.025 198.963 84.4528 189.473 114.846 183.249C175.629 170.801 256.169 171.438 342.049 188.131Z" stroke="url(#paint20_linear_83_2088)"/>
<path d="M344.295 188.588C429.871 206.777 504.257 237.661 555.344 272.869C580.889 290.473 600.587 309.145 612.953 327.83C625.317 346.514 630.33 365.177 626.583 382.804C622.836 400.431 610.667 415.441 591.772 427.481C572.875 439.522 547.285 448.567 516.789 454.259C455.797 465.644 375.281 463.602 289.705 445.412C204.129 427.222 129.743 396.339 78.6552 361.131C53.1105 343.527 33.4122 324.855 21.0465 306.169C8.68214 287.486 3.66982 268.823 7.41648 251.196C11.1632 233.569 23.3331 218.558 42.2278 206.519C61.1247 194.478 86.7142 185.433 117.211 179.741C178.202 168.356 258.719 170.398 344.295 188.588Z" stroke="url(#paint21_linear_83_2088)"/>
<path d="M346.532 189.084C431.777 208.764 505.613 240.941 556.078 277.035C581.312 295.083 600.682 314.095 612.719 332.994C624.756 351.891 629.441 370.638 625.388 388.197C621.334 405.756 608.904 420.552 589.802 432.26C570.698 443.969 544.954 452.566 514.363 457.725C453.182 468.044 372.714 464.597 287.468 444.916C202.223 425.236 128.387 393.059 77.9215 356.965C52.6879 338.917 33.3185 319.905 21.2808 301.006C9.2444 282.109 4.55856 263.362 8.61228 245.803C12.666 228.245 25.096 213.448 44.1981 201.741C63.3022 190.031 89.0457 181.434 119.637 176.275C180.818 165.956 261.286 169.403 346.532 189.084Z" stroke="url(#paint22_linear_83_2088)"/>
<path d="M348.759 189.619C433.648 210.784 506.912 244.244 556.739 281.214C581.654 299.699 600.689 319.047 612.395 338.153C624.099 357.256 628.457 376.083 624.098 393.568C619.738 411.053 607.052 425.63 587.749 437.003C568.443 448.377 542.553 456.523 511.876 461.148C450.525 470.398 370.129 465.547 285.24 444.381C200.351 423.216 127.088 389.756 77.2602 352.786C52.3454 334.301 33.3107 314.954 21.6047 295.848C9.89992 276.744 5.54198 257.917 9.90153 240.432C14.2611 222.947 26.9474 208.37 46.2509 196.997C65.5564 185.623 91.4461 177.477 122.123 172.852C183.474 163.602 263.871 168.453 348.759 189.619Z" stroke="url(#paint23_linear_83_2088)"/>
<path d="M350.978 190.192C435.484 212.836 508.152 247.57 557.327 285.403C581.916 304.321 600.61 323.997 611.981 343.305C623.35 362.61 627.379 381.51 622.715 398.916C618.051 416.323 605.112 430.676 585.613 441.71C566.112 452.745 540.084 460.439 509.331 464.527C447.828 472.705 367.528 466.451 283.022 443.808C198.515 421.164 125.847 386.43 76.6721 348.597C52.0837 329.679 33.3895 310.003 22.0187 290.695C10.6492 271.39 6.62048 252.49 11.2845 235.084C15.9486 217.678 28.8874 203.324 48.3864 192.29C67.8875 181.255 93.9154 173.561 124.668 169.473C186.172 161.296 266.471 167.549 350.978 190.192Z" stroke="url(#paint24_linear_83_2088)"/>
<path d="M353.185 190.805C437.284 214.92 509.335 250.917 557.842 289.603C582.096 308.946 600.444 328.946 611.476 348.449C622.507 367.95 626.206 386.917 621.238 404.239C616.271 421.562 603.084 435.687 583.395 446.379C563.705 457.072 537.546 464.31 506.727 467.862C445.09 474.964 364.912 467.31 280.814 443.196C196.715 419.081 124.664 383.084 76.1571 344.398C51.9026 325.054 33.5547 305.054 22.5226 285.551C11.4917 266.051 7.79346 247.083 12.7606 229.761C17.7277 212.439 30.9151 198.313 50.6036 187.621C70.2944 176.928 96.4525 169.69 127.272 166.139C188.909 159.036 269.087 166.69 353.185 190.805Z" stroke="url(#paint25_linear_83_2088)"/>
<path d="M355.383 191.456C439.048 217.035 510.459 254.284 558.284 293.81C582.197 313.574 600.193 333.891 610.883 353.584C621.572 373.274 624.939 392.303 619.67 409.536C614.401 426.769 600.97 440.662 581.097 451.009C561.223 461.357 534.942 468.137 504.066 471.15C442.314 477.176 362.282 468.124 278.617 442.545C194.952 416.966 123.541 379.717 75.7162 340.19C51.803 320.426 33.8069 300.11 23.1169 280.417C12.428 260.727 9.06133 241.698 14.33 224.465C19.5987 207.232 33.0306 193.339 52.9028 182.992C72.7771 172.644 99.0576 165.864 129.934 162.851C191.686 156.825 271.718 165.877 355.383 191.456Z" stroke="url(#paint26_linear_83_2088)"/>
<path d="M357.568 192.144C440.774 219.179 511.525 257.669 558.652 298.024C582.217 318.203 599.855 338.831 610.2 358.707C620.544 378.581 623.578 397.665 618.009 414.804C612.44 431.942 598.768 445.599 578.718 455.597C558.667 465.597 532.272 471.917 501.347 474.391C439.5 479.338 359.638 468.891 276.432 441.856C193.226 414.82 122.476 376.331 75.3483 335.976C51.7837 315.797 34.1449 295.169 23.8002 275.293C13.4566 255.419 10.4225 236.335 15.9912 219.196C21.5598 202.058 35.2321 188.401 55.2818 178.403C75.3338 168.403 101.729 162.083 132.653 159.609C194.5 154.662 274.362 165.109 357.568 192.144Z" stroke="url(#paint27_linear_83_2088)"/>
<path d="M359.741 192.871C442.462 221.355 512.53 261.073 558.946 302.245C582.155 322.831 599.431 343.764 609.427 363.817C619.422 383.869 622.123 403.003 616.256 420.042C610.389 437.081 596.48 450.497 576.259 460.144C556.036 469.792 529.535 475.651 498.571 477.584C436.648 481.451 356.98 469.612 274.259 441.129C191.537 412.645 121.469 372.927 75.0534 331.755C51.8445 311.169 34.5685 290.236 24.5722 270.183C14.577 250.131 11.8765 230.996 17.7434 213.958C23.6103 196.919 37.5188 183.503 57.74 173.856C77.9634 164.208 104.465 158.349 135.428 156.416C197.352 152.549 277.019 164.388 359.741 192.871Z" stroke="url(#paint28_linear_83_2088)"/>
<path d="M361.9 193.637C444.112 223.559 513.476 264.495 559.166 306.47C582.012 327.458 598.92 348.689 608.565 368.914C618.209 389.137 620.575 408.316 614.412 425.25C608.248 442.183 594.108 455.354 573.721 464.647C553.332 473.941 526.733 479.336 495.741 480.729C433.759 483.515 354.31 470.287 272.099 440.364C189.887 410.442 120.523 369.506 74.8324 327.531C51.9863 306.543 35.0782 285.312 25.4335 265.087C15.7897 244.864 13.4236 225.685 19.587 208.751C25.7503 191.817 39.8909 178.646 60.2774 169.354C80.6661 160.06 107.265 154.665 138.258 153.272C200.24 150.486 279.688 163.714 361.9 193.637Z" stroke="url(#paint29_linear_83_2088)"/>
<path d="M364.047 194.439C445.724 225.792 514.363 267.931 559.314 310.698C581.79 332.081 598.325 353.604 607.615 373.995C616.905 394.383 618.936 413.6 612.478 430.423C606.02 447.247 591.652 460.169 571.106 469.105C550.558 478.041 523.869 482.972 492.857 483.823C430.836 485.527 351.63 470.914 269.953 439.561C188.276 408.209 119.637 366.069 74.6863 323.303C52.21 301.919 35.675 280.396 26.3847 260.006C17.0953 239.618 15.0643 220.4 21.5222 203.577C27.9802 186.753 42.3485 173.831 62.894 164.896C83.4418 155.959 110.131 151.029 141.143 150.177C203.164 148.473 282.37 163.086 364.047 194.439Z" stroke="url(#paint30_linear_83_2088)"/>
<path d="M366.179 195.278C447.296 228.052 515.189 271.383 559.387 314.927C581.486 336.7 597.643 358.508 606.576 379.058C615.508 399.605 617.204 418.855 610.453 435.563C603.703 452.271 589.111 464.941 568.413 473.516C547.712 482.093 520.941 486.557 489.919 486.867C427.877 487.488 348.938 471.495 267.821 438.722C186.704 405.948 118.811 362.617 74.613 319.073C52.5133 297.3 36.3565 275.492 27.4235 254.942C18.4914 234.395 16.796 215.146 23.5466 198.437C30.2972 181.729 44.8888 169.059 65.5872 160.484C86.2878 151.907 113.059 147.444 144.081 147.133C206.123 146.512 285.061 162.505 366.179 195.278Z" stroke="url(#paint31_linear_83_2088)"/>
<path d="M368.295 196.155C448.828 230.34 515.955 274.849 559.386 319.158C581.102 341.313 596.876 363.4 605.449 384.102C614.021 404.802 615.38 424.078 608.339 440.666C601.298 457.254 586.487 469.667 565.643 477.88C544.795 486.094 517.95 490.09 486.928 489.859C424.885 489.397 346.237 472.029 265.704 437.845C185.171 403.661 118.045 359.151 74.6136 314.842C52.8973 292.687 37.1235 270.6 28.5505 249.898C19.9783 229.198 18.6192 209.922 25.6603 193.334C32.7015 176.746 47.512 164.333 68.3569 156.12C89.204 147.906 116.049 143.91 147.072 144.141C209.115 144.603 287.762 161.971 368.295 196.155Z" stroke="url(#paint32_linear_83_2088)"/>
<path d="M370.396 197.069C450.32 232.653 516.66 278.328 559.311 323.388C580.637 345.919 596.023 368.277 604.234 389.126C612.443 409.972 613.466 429.269 606.136 445.732C598.807 462.195 583.782 474.347 562.797 482.195C541.809 490.044 514.899 493.571 483.885 492.798C421.859 491.254 343.527 472.516 263.603 436.931C183.679 401.347 117.339 355.672 74.688 310.612C53.3617 288.081 37.9758 265.723 29.7654 244.874C21.5558 224.028 20.5333 204.731 27.8628 188.268C35.1924 171.806 50.2173 159.653 71.2024 151.805C92.1897 143.956 119.101 140.429 150.114 141.202C212.14 142.746 290.472 161.484 370.396 197.069Z" stroke="url(#paint33_linear_83_2088)"/>
<path d="M372.481 198.019C451.772 234.993 517.305 281.818 559.163 327.616C580.093 350.515 595.086 373.139 602.931 394.128C610.776 415.114 611.461 434.426 603.846 450.758C596.23 467.09 580.995 478.979 559.876 486.459C538.755 493.941 511.787 496.997 480.791 495.684C418.802 493.057 340.809 472.955 261.518 435.981C182.227 399.007 116.694 352.182 74.8363 306.384C53.9065 283.484 38.9131 260.861 31.0678 239.872C23.2233 218.886 22.5377 199.573 30.1535 183.241C37.7693 166.909 53.0039 155.021 74.1228 147.54C95.2439 140.059 122.212 137.002 153.208 138.316C215.197 140.943 293.19 161.045 372.481 198.019Z" stroke="url(#paint34_linear_83_2088)"/>
<path d="M374.549 199.006C453.183 237.358 517.888 285.319 558.94 331.841C579.468 355.102 594.064 377.984 601.542 399.106C609.019 420.227 609.367 439.548 601.467 455.744C593.568 471.941 578.128 483.562 556.882 490.673C535.633 497.784 508.616 500.37 477.648 498.516C415.714 494.807 338.083 473.347 259.45 434.995C180.816 396.643 116.111 348.681 75.0585 302.16C54.5315 278.898 39.9353 256.016 32.4574 234.894C24.9804 213.774 24.6319 194.453 32.5316 178.256C40.4312 162.059 55.8711 150.438 77.1172 143.328C98.3657 136.216 125.383 133.63 156.351 135.485C218.285 139.193 295.916 160.653 374.549 199.006Z" stroke="url(#paint35_linear_83_2088)"/>
<path d="M376.6 200.028C454.552 239.747 518.411 288.83 558.645 336.061C578.763 359.677 592.957 382.81 600.066 404.06C607.173 425.307 607.184 444.632 599.003 460.688C590.822 476.745 575.181 488.094 553.814 494.833C532.445 501.573 505.386 503.686 474.456 501.292C412.596 496.503 335.351 473.691 257.399 433.973C179.447 394.254 115.589 345.17 75.3546 297.94C55.2366 274.324 41.042 251.19 33.9339 229.941C26.8266 208.693 26.8154 189.369 34.9965 173.313C43.1777 157.256 58.818 145.907 80.185 139.168C101.554 132.428 128.613 130.314 159.544 132.709C221.403 137.498 298.648 160.31 376.6 200.028Z" stroke="url(#paint36_linear_83_2088)"/>
<path d="M378.632 201.086C455.879 242.159 518.871 292.349 558.275 340.275C577.978 364.239 591.766 387.616 598.503 408.987C605.238 430.355 604.912 449.676 596.452 465.588C587.992 481.499 572.156 492.574 550.674 498.939C529.191 505.304 502.099 506.945 471.215 504.011C409.448 498.144 332.614 473.987 255.367 432.914C178.12 391.841 115.127 341.651 75.7236 293.725C56.0209 269.761 42.2321 246.384 35.496 225.013C28.7606 203.645 29.0866 184.324 37.5467 168.412C46.0068 152.501 61.8429 141.427 83.3242 135.062C104.808 128.696 131.899 127.055 162.784 129.989C224.55 135.856 301.385 160.013 378.632 201.086Z" stroke="url(#paint37_linear_83_2088)"/>
<path d="M380.646 202.179C457.164 244.594 519.271 295.876 557.832 344.482C577.114 368.786 590.492 392.401 596.854 413.886C603.216 435.368 602.553 454.681 593.816 470.442C585.08 486.203 569.053 497 547.464 502.989C525.872 508.979 498.756 510.147 467.928 506.674C406.273 499.73 329.871 474.236 253.353 431.821C176.835 389.406 114.728 338.124 76.1666 289.518C56.8851 265.214 43.5064 241.599 37.1443 220.114C30.7828 198.632 31.446 179.319 40.1825 163.558C48.919 147.797 64.9459 137 86.5351 131.011C108.127 125.021 135.243 123.853 166.071 127.326C227.726 134.27 304.127 159.764 380.646 202.179Z" stroke="url(#paint38_linear_83_2088)"/>
<path d="M382.64 203.307C458.407 247.051 519.609 299.41 557.316 348.681C576.171 373.318 589.135 397.163 595.122 418.755C601.107 440.345 600.107 459.644 591.097 475.25C582.086 490.856 565.874 501.372 544.183 506.983C522.49 512.595 495.358 513.29 464.595 509.28C403.071 501.26 327.126 474.437 251.359 430.693C175.593 386.949 114.391 334.591 76.6836 285.319C57.8292 260.682 44.8647 236.838 38.8785 215.245C32.8929 193.655 33.8931 174.357 42.9033 158.75C51.9136 143.144 68.1264 132.629 89.8169 127.017C111.51 121.405 138.642 120.711 169.405 124.721C230.929 132.74 306.874 159.564 382.64 203.307Z" stroke="url(#paint39_linear_83_2088)"/>
<path d="M384.614 204.47C459.606 249.53 519.885 302.948 556.727 352.871C575.148 377.833 587.694 401.9 593.303 423.593C598.911 445.285 597.574 464.563 588.293 480.009C579.011 495.456 562.618 505.687 540.833 510.919C519.045 516.151 491.905 516.372 461.216 511.826C399.842 502.734 324.377 474.589 249.385 429.53C174.393 384.47 114.114 331.052 77.2727 281.13C58.8512 256.168 46.3048 232.1 40.6963 210.407C35.0885 188.715 36.4253 169.437 45.7066 153.991C54.9878 138.544 71.3817 128.313 93.1667 123.081C114.954 117.849 142.094 117.628 172.783 122.174C234.158 131.266 309.623 159.411 384.614 204.47Z" stroke="url(#paint40_linear_83_2088)"/>
<path d="M386.568 205.667C460.762 252.029 520.099 306.491 556.064 357.049C574.047 382.328 586.171 406.611 591.4 428.399C596.629 450.185 594.956 469.437 585.406 484.719C575.857 500.001 559.287 509.944 537.414 514.795C515.538 519.647 488.399 519.394 457.794 514.313C396.587 504.151 321.625 474.694 247.431 428.332C173.237 381.971 113.9 327.508 77.9351 276.951C59.952 251.671 47.8275 227.389 42.5985 205.6C37.3701 183.815 39.0432 164.563 48.5926 149.281C58.142 133.998 74.712 124.055 96.585 119.204C118.46 114.353 145.6 114.605 176.205 119.686C237.412 129.848 312.374 159.306 386.568 205.667Z" stroke="url(#paint41_linear_83_2088)"/>
<path d="M388.5 206.898C461.874 254.548 520.252 310.038 555.329 361.215C572.868 386.805 584.567 411.295 589.415 433.171C594.262 455.045 592.253 474.265 582.439 489.378C572.624 504.491 555.883 514.144 533.929 518.612C511.972 523.081 484.84 522.355 454.329 516.74C393.309 505.512 318.872 474.751 245.499 427.101C172.126 379.452 113.748 323.962 78.6707 272.785C61.1315 247.195 49.4327 222.705 44.5848 200.829C39.7373 178.955 41.7462 159.735 51.5608 144.622C61.3755 129.509 78.1164 119.856 100.071 115.388C122.028 110.919 149.159 111.645 179.67 117.259C240.69 128.488 315.127 159.249 388.5 206.898Z" stroke="url(#paint42_linear_83_2088)"/>
<path d="M390.411 208.163C462.942 257.085 520.342 313.586 554.521 365.368C571.611 391.259 582.88 415.95 587.346 437.908C591.811 459.863 589.467 479.045 579.39 493.984C569.313 508.924 552.406 518.283 530.377 522.367C508.346 526.453 481.231 525.253 450.822 519.107C390.008 506.815 316.119 474.759 243.588 425.837C171.058 376.914 113.657 320.414 79.4786 268.632C62.3888 242.74 51.1192 218.049 46.6537 196.092C42.1888 174.137 44.5328 154.955 54.6097 140.016C64.6866 125.076 81.5935 115.717 103.623 111.632C125.654 107.547 152.768 108.747 183.177 114.893C243.992 127.185 317.881 159.24 390.411 208.163Z" stroke="url(#paint43_linear_83_2088)"/>
<path d="M392.3 209.461C463.965 259.642 520.371 317.135 553.641 369.505C570.276 395.692 581.113 420.575 585.195 442.607C589.276 464.637 586.597 483.775 576.261 498.536C565.925 513.298 548.857 522.36 526.76 526.06C504.661 529.76 477.572 528.087 447.275 521.411C386.684 508.06 313.366 474.72 241.7 424.539C170.034 374.358 113.629 316.865 80.3591 264.494C63.7237 238.308 52.8867 213.424 48.8052 191.392C44.7241 169.362 47.4025 150.225 57.7386 135.463C68.0747 120.702 85.1424 111.639 107.239 107.94C129.339 104.24 156.428 105.912 186.725 112.588C247.316 125.94 320.634 159.28 392.3 209.461Z" stroke="url(#paint44_linear_83_2088)"/>
<path d="M394.165 210.792C464.944 262.216 520.337 320.685 552.688 373.628C568.864 400.1 579.265 425.169 582.961 447.269C586.657 469.367 583.645 488.455 573.053 503.034C562.461 517.613 545.238 526.376 523.08 529.689C500.919 533.003 473.863 530.858 443.687 523.654C383.339 509.247 310.614 474.633 239.834 423.209C169.055 371.785 113.662 313.316 81.3112 260.373C65.1353 233.9 54.7343 208.831 51.0379 186.731C47.3419 164.634 50.3538 145.545 60.946 130.966C71.5382 116.388 88.7614 107.624 110.92 104.311C133.08 100.997 160.136 103.142 190.312 110.346C250.661 124.753 323.386 159.368 394.165 210.792Z" stroke="url(#paint45_linear_83_2088)"/>
<path d="M396.007 212.155C465.878 264.806 520.243 324.233 551.664 377.733C567.376 404.483 577.338 429.73 580.648 451.891C583.958 474.05 580.613 493.083 569.768 507.474C558.923 521.866 541.549 530.327 519.337 533.254C497.122 536.18 470.107 533.563 440.062 525.834C379.974 510.376 307.864 474.497 237.993 421.846C168.122 369.194 113.757 309.768 82.336 256.268C66.6246 229.517 56.6626 204.27 53.3525 182.109C50.0427 159.951 53.3873 140.918 64.2323 126.526C75.0773 112.134 92.4509 103.673 114.663 100.747C136.878 97.8203 163.893 100.437 193.938 108.167C254.026 123.624 326.136 159.503 396.007 212.155Z" stroke="url(#paint46_linear_83_2088)"/>
<path d="M397.825 213.549C466.766 267.412 520.086 327.779 550.569 381.819C565.811 408.84 575.331 434.257 578.253 456.472C581.176 478.685 577.5 497.657 566.405 511.857C555.311 526.057 537.792 534.214 515.532 536.752C493.269 539.29 466.304 536.202 436.399 527.95C376.589 511.446 305.117 474.314 236.175 420.451C167.234 366.588 113.915 306.222 83.4316 252.182C68.1895 225.161 58.6697 199.744 55.7468 177.529C52.8243 155.315 56.5005 136.344 67.5951 122.144C78.6896 107.943 96.2081 99.7867 118.468 97.2486C140.731 94.7102 167.696 97.7984 197.602 106.051C257.411 122.555 328.884 159.687 397.825 213.549Z" stroke="url(#paint47_linear_83_2088)"/>
<path d="M399.618 214.975C467.609 270.033 519.866 331.321 549.402 385.885C564.17 413.168 573.245 438.747 575.779 461.01C578.314 483.271 574.307 502.175 562.966 516.18C551.626 530.184 533.967 538.034 511.666 540.183C489.363 542.332 462.456 538.774 432.699 530.001C373.187 512.456 302.373 474.082 234.382 419.024C166.391 363.967 114.134 302.679 84.5983 248.115C69.8301 220.832 60.7553 195.253 58.2206 172.99C55.6862 150.729 59.693 131.825 71.0336 117.82C82.3743 103.816 100.033 95.9661 122.334 93.8169C144.637 91.6674 171.544 95.2257 201.301 103.999C260.813 121.544 331.627 159.918 399.618 214.975Z" stroke="url(#paint48_linear_83_2088)"/>
<path d="M401.386 216.433C468.405 272.669 519.586 334.86 548.164 389.931C562.454 417.467 571.081 443.201 573.227 465.505C575.372 487.806 571.036 506.638 559.453 520.443C547.87 534.247 530.077 541.787 507.742 543.547C485.404 545.307 458.563 541.28 428.964 531.988C369.767 513.407 299.634 473.804 232.614 417.568C165.595 361.332 114.415 299.141 85.8361 244.07C71.5463 216.534 62.9193 190.8 60.7735 168.496C58.628 146.195 62.9641 127.363 74.5475 113.559C86.1308 99.7541 103.923 92.2137 126.259 90.4541C148.596 88.6942 175.437 92.7215 205.037 102.013C264.233 120.594 334.367 160.197 401.386 216.433Z" stroke="url(#paint49_linear_83_2088)"/>
<path d="M403.127 217.921C469.155 275.318 519.242 338.393 546.855 393.954C560.663 421.736 568.839 447.616 570.595 469.954C572.351 492.289 567.687 511.043 555.865 524.643C544.042 538.243 526.121 545.472 503.758 546.841C481.393 548.211 454.627 543.716 425.194 533.91C366.33 514.298 296.899 473.476 230.871 416.079C164.843 358.682 114.756 295.608 87.1433 240.047C73.3363 212.265 65.1597 186.385 63.4035 164.047C61.6475 141.711 66.3116 122.958 78.1341 109.358C89.9566 95.7577 107.878 88.5291 130.241 87.1595C152.606 85.7897 179.372 90.2849 208.805 100.091C267.668 119.703 337.1 160.524 403.127 217.921Z" stroke="url(#paint50_linear_83_2088)"/>
<path d="M404.844 219.44C469.86 277.98 518.839 341.919 545.478 397.954C558.798 425.972 566.522 451.991 567.888 474.356C569.254 496.719 564.263 515.388 552.205 528.78C540.147 542.172 522.102 549.086 499.719 550.066C477.333 551.045 450.65 546.083 421.393 535.765C362.88 515.129 294.172 473.102 229.156 414.561C164.14 356.02 115.161 292.081 88.522 236.047C75.2019 208.028 67.4782 182.009 66.1122 159.644C64.7463 137.281 69.737 118.613 81.795 105.221C93.8531 91.8289 111.898 84.9141 134.281 83.935C156.667 82.9558 183.35 87.9174 212.608 98.2358C271.12 118.872 339.828 160.899 404.844 219.44Z" stroke="url(#paint51_linear_83_2088)"/>
<path d="M406.533 220.987C470.518 280.654 518.373 345.438 544.03 401.929C556.859 430.176 564.128 456.325 565.103 478.711C566.079 501.094 560.763 519.673 548.473 532.853C536.183 546.032 518.02 552.631 495.623 553.219C473.224 553.807 446.631 548.381 417.558 537.553C359.415 515.899 291.451 472.68 227.466 413.013C163.482 353.347 115.627 288.563 89.9694 232.072C77.1403 203.825 69.8719 177.675 68.8964 155.29C67.921 132.906 73.2367 114.327 85.5267 101.148C97.8166 87.9688 115.979 81.37 138.376 80.7817C160.775 80.1933 187.368 85.6199 216.441 96.4473C274.584 118.101 342.549 161.321 406.533 220.987Z" stroke="url(#paint52_linear_83_2088)"/>
<path d="M408.195 222.565C471.128 283.339 517.846 348.948 542.513 405.878C554.847 434.344 561.658 460.617 562.243 483.016C562.827 505.413 557.188 523.896 544.67 536.859C532.152 549.822 513.877 556.103 491.473 556.3C469.067 556.498 442.573 550.608 413.693 539.275C355.937 516.609 288.737 472.21 225.804 411.436C162.87 350.662 116.153 285.052 91.4857 228.122C79.1515 199.656 72.3406 173.383 71.7559 150.984C71.1713 128.587 76.8105 110.104 89.3286 97.1411C101.847 84.1783 120.122 77.8975 142.525 77.7001C164.932 77.5027 191.426 83.3926 220.305 94.7258C278.062 117.391 345.261 161.791 408.195 222.565Z" stroke="url(#paint53_linear_83_2088)"/>
<path d="M409.829 224.171C471.692 286.034 517.257 352.448 540.927 409.801C552.763 438.478 559.114 464.865 559.308 487.271C559.502 509.675 553.541 528.057 540.798 540.799C528.056 553.542 509.674 559.503 487.27 559.309C464.864 559.115 438.477 552.764 409.799 540.928C352.447 517.258 286.033 471.693 224.17 409.83C162.306 347.967 116.741 281.552 93.0711 224.2C81.2356 195.523 74.8843 169.136 74.6906 146.729C74.4969 124.326 80.4578 105.944 93.2002 93.2013C105.943 80.4589 124.325 74.498 146.728 74.6917C169.134 74.8854 195.522 81.2367 224.199 93.0722C281.551 116.742 347.966 162.307 409.829 224.171Z" stroke="url(#paint54_linear_83_2088)"/>
<path d="M411.435 225.805C472.209 288.738 516.608 355.938 539.274 413.694C550.607 442.574 556.497 469.068 556.299 491.474C556.102 513.878 549.821 532.153 536.858 544.671C523.895 557.189 505.412 562.828 483.015 562.244C460.616 561.659 434.343 554.848 405.877 542.514C348.947 517.847 283.338 471.129 222.564 408.196C161.789 345.262 117.39 278.063 94.7248 220.306C83.3916 191.427 77.5017 164.933 77.6991 142.527C77.8965 120.123 84.1773 101.848 97.1401 89.3296C110.103 76.8116 128.586 71.1724 150.983 71.757C173.382 72.3417 199.655 79.1526 228.121 91.4868C285.051 116.154 350.661 162.872 411.435 225.805Z" stroke="url(#paint55_linear_83_2088)"/>
<path d="M413.013 227.467C472.679 291.451 515.899 359.416 537.553 417.559C548.38 446.632 553.807 473.225 553.219 495.624C552.63 518.021 546.032 536.184 532.852 548.473C519.673 560.763 501.094 566.079 478.711 565.104C456.325 564.128 430.175 556.86 401.929 544.031C345.438 518.374 280.654 470.518 220.987 406.534C161.321 342.549 118.101 274.585 96.447 216.442C85.6195 187.369 80.193 160.776 80.7813 138.377C81.3697 115.98 87.9685 97.8171 101.148 85.5272C114.327 73.2373 132.906 67.9215 155.289 68.8969C177.675 69.8725 203.825 77.1408 232.071 89.9699C288.562 115.627 353.346 163.482 413.013 227.467Z" stroke="url(#paint56_linear_83_2088)"/>
<path d="M414.56 229.156C473.101 294.172 515.128 362.88 535.764 421.393C546.082 450.65 551.044 477.333 550.065 499.719C549.086 522.102 542.171 540.147 528.779 552.205C515.387 564.263 496.718 569.254 474.356 567.888C451.99 566.522 425.971 558.798 397.953 545.478C341.918 518.839 277.979 469.86 219.439 404.844C160.898 339.828 118.871 271.12 98.235 212.608C87.9166 183.35 82.9549 156.667 83.9342 134.281C84.9133 111.898 91.8281 93.8531 105.22 81.795C118.612 69.737 137.281 64.7463 159.643 66.1122C182.009 67.4782 208.027 75.2019 236.046 88.522C292.081 115.161 356.02 164.14 414.56 229.156Z" stroke="url(#paint57_linear_83_2088)"/>
<path d="M416.078 230.872C473.475 296.9 514.297 366.331 533.908 425.195C543.715 454.628 548.21 481.394 546.84 503.759C545.471 526.122 538.242 544.043 524.642 555.866C511.041 567.688 492.288 572.352 469.953 570.596C447.615 568.84 421.735 560.663 393.953 546.856C338.392 519.243 275.317 469.156 217.92 403.128C160.523 337.101 119.702 267.669 100.09 208.806C90.2838 179.373 85.7886 152.607 87.1583 130.242C88.5279 107.879 95.7566 89.9576 109.357 78.1351C122.957 66.3126 141.71 61.6485 164.046 63.4045C186.384 65.1607 212.264 73.3372 240.046 87.1443C295.607 114.757 358.681 164.844 416.078 230.872Z" stroke="url(#paint58_linear_83_2088)"/>
<path d="M417.566 232.614C473.802 299.634 513.406 369.767 531.987 428.964C541.278 458.563 545.306 485.404 543.546 507.742C541.786 530.077 534.246 547.87 520.441 559.453C506.637 571.036 487.805 575.372 465.504 573.227C443.2 571.081 417.466 562.454 389.93 548.164C334.859 519.586 272.668 468.405 216.432 401.386C160.196 334.366 120.593 264.233 102.011 205.036C92.7202 175.437 88.6929 148.596 90.4527 126.259C92.2124 103.923 99.7527 86.1307 113.557 74.5474C127.362 62.9641 146.193 58.6279 168.495 60.7735C190.799 62.9192 216.532 71.5462 244.069 85.836C299.14 114.415 361.33 165.595 417.566 232.614Z" stroke="url(#paint59_linear_83_2088)"/>
<path d="M419.024 234.383C474.082 302.373 512.455 373.187 530 432.699C538.773 462.456 542.332 489.363 540.182 511.667C538.033 533.968 530.183 551.626 516.179 562.967C502.174 574.307 483.27 578.314 461.009 575.78C438.746 573.245 413.167 564.17 385.884 549.402C331.321 519.867 270.033 467.609 214.975 399.618C159.917 331.627 121.543 260.814 103.998 201.302C95.225 171.545 91.6667 144.638 93.8161 122.334C95.9654 100.033 103.815 82.3747 117.82 71.034C131.824 59.6934 150.729 55.6866 172.989 58.221C195.252 60.7557 220.831 69.8305 248.114 84.5987C302.678 114.134 363.966 166.392 419.024 234.383Z" stroke="url(#paint60_linear_83_2088)"/>
<path d="M420.451 236.176C474.314 305.117 511.446 376.59 527.95 436.399C536.202 466.305 539.29 493.269 536.752 515.532C534.214 537.792 526.057 555.311 511.857 566.405C497.656 577.5 478.685 581.176 456.472 578.254C434.256 575.331 408.84 565.811 381.819 550.569C327.779 520.086 267.412 466.766 213.549 397.825C159.686 328.884 122.555 257.411 106.051 197.602C97.7983 167.696 94.7101 140.731 97.2484 118.469C99.7865 96.2084 107.943 78.6898 122.144 67.5953C136.344 56.5008 155.315 52.8245 177.528 55.7471C199.744 58.6699 225.161 68.1898 252.182 83.4319C306.222 113.915 366.588 167.234 420.451 236.176Z" stroke="url(#paint61_linear_83_2088)"/>
<path d="M421.846 237.993C474.497 307.864 510.376 379.974 525.833 440.062C533.563 470.107 536.18 497.122 533.253 519.337C530.327 541.55 521.866 558.923 507.474 569.768C493.082 580.613 474.05 583.958 451.891 580.648C429.73 577.338 404.483 567.376 377.732 551.664C324.233 520.243 264.806 465.878 212.154 396.007C159.503 326.136 123.624 254.027 108.166 193.938C100.437 163.893 97.82 136.879 100.747 114.664C103.673 92.4511 112.134 75.0775 126.526 64.2325C140.917 53.3875 159.95 50.0429 182.109 53.3527C204.27 56.6628 229.517 66.6248 256.268 82.3362C309.767 113.758 369.194 168.123 421.846 237.993Z" stroke="url(#paint62_linear_83_2088)"/>
<path d="M423.208 239.835C474.632 310.614 509.247 383.339 523.653 443.688C530.857 473.864 533.002 500.92 529.689 523.08C526.375 545.239 517.612 562.462 503.033 573.054C488.454 583.646 469.366 586.658 447.269 582.962C425.169 579.266 400.1 568.865 373.627 552.689C320.684 520.338 262.215 464.944 210.791 394.165C159.367 323.386 124.752 250.661 110.345 190.313C103.142 160.137 100.996 133.081 104.31 110.92C107.624 88.7623 116.387 71.539 130.966 60.9469C145.544 50.3547 164.633 47.3428 186.73 51.0388C208.83 54.7351 233.899 65.1362 260.372 81.312C313.315 113.662 371.784 169.056 423.208 239.835Z" stroke="url(#paint63_linear_83_2088)"/>
<path d="M424.539 241.701C474.72 313.366 508.06 386.684 521.411 447.275C528.087 477.572 529.76 504.662 526.06 526.761C522.36 548.858 513.298 565.925 498.536 576.262C483.775 586.598 464.637 589.276 442.607 585.195C420.575 581.113 395.691 570.276 369.505 553.641C317.135 520.372 259.641 463.966 209.46 392.3C159.28 320.634 125.939 247.316 112.588 186.725C105.912 156.429 104.239 129.339 107.939 107.24C111.639 85.1428 120.701 68.0752 135.463 57.739C150.224 47.4029 169.362 44.7246 191.392 48.8057C213.424 52.8872 238.308 63.7242 264.494 80.3596C316.864 113.629 374.358 170.035 424.539 241.701Z" stroke="url(#paint64_linear_83_2088)"/>
<path d="M425.836 243.589C474.759 316.119 506.814 390.008 519.106 450.823C525.252 481.232 526.452 508.346 522.367 530.378C518.282 552.407 508.923 569.313 493.984 579.39C479.044 589.467 459.862 591.811 437.907 587.346C415.95 582.881 391.259 571.611 365.367 554.521C313.585 520.343 257.085 462.942 208.163 390.412C159.24 317.881 127.184 243.992 114.893 183.178C108.746 152.769 107.547 125.654 111.632 103.623C115.717 81.5941 125.076 64.6872 140.015 54.6102C154.955 44.5333 174.137 42.1894 196.092 46.6543C218.049 51.1197 242.74 62.3893 268.632 79.4792C320.414 113.658 376.914 171.058 425.836 243.589Z" stroke="url(#paint65_linear_83_2088)"/>
<path d="M427.102 245.499C474.751 318.873 505.512 393.31 516.741 454.33C522.355 484.841 523.081 511.972 518.612 533.929C514.144 555.883 504.491 572.624 489.378 582.439C474.265 592.254 455.045 594.263 433.171 589.415C411.295 584.567 386.805 572.868 361.215 555.329C310.038 520.252 254.548 461.874 206.899 388.501C159.249 315.128 128.488 240.691 117.26 179.671C111.645 149.159 110.919 122.028 115.388 100.071C119.856 78.117 129.509 61.376 144.622 51.5613C159.735 41.7467 178.955 39.7379 200.829 44.5853C222.705 49.4332 247.195 61.132 272.785 78.6712C323.963 113.748 379.452 172.126 427.102 245.499Z" stroke="url(#paint66_linear_83_2088)"/>
<path d="M428.332 247.432C474.693 321.626 504.151 396.588 514.313 457.795C519.394 488.399 519.647 515.539 514.795 537.415C509.944 559.288 500.001 575.858 484.719 585.407C469.436 594.956 450.185 596.63 428.399 591.401C406.61 586.172 382.328 574.048 357.048 556.065C306.491 520.1 252.028 460.762 205.667 386.569C159.305 312.375 129.848 237.412 119.686 176.206C114.605 145.601 114.352 118.461 119.204 96.5857C124.055 74.7127 133.998 58.1427 149.28 48.5933C164.562 39.0439 183.814 37.3709 205.6 42.5993C227.388 47.8283 251.671 59.9527 276.951 77.9358C327.508 113.901 381.971 173.238 428.332 247.432Z" stroke="url(#paint67_linear_83_2088)"/>
<path d="M429.529 249.386C474.589 324.377 502.733 399.842 511.826 461.217C516.372 491.906 516.151 519.046 510.918 540.833C505.686 562.618 495.455 579.012 480.009 588.293C464.562 597.575 445.284 598.911 423.593 593.304C401.899 587.695 377.832 575.149 352.87 556.727C302.948 519.885 249.529 459.607 204.47 384.615C159.41 309.623 131.266 234.158 122.173 172.783C117.627 142.095 117.848 114.955 123.081 93.1673C128.313 71.3823 138.544 54.9884 153.99 45.7071C169.437 36.4259 188.715 35.0891 210.406 40.6969C232.1 46.3054 256.167 58.8518 281.129 77.2733C331.051 114.115 384.47 174.394 429.529 249.386Z" stroke="url(#paint68_linear_83_2088)"/>
<path d="M430.692 251.36C474.436 327.127 501.259 403.071 509.279 464.595C513.289 495.359 512.595 522.491 506.982 544.184C501.371 565.874 490.856 582.087 475.249 591.097C459.643 600.107 440.345 601.108 418.755 595.122C397.162 589.136 373.318 576.171 348.681 557.317C299.409 519.61 247.051 458.408 203.307 382.641C159.563 306.874 132.74 230.93 124.72 169.406C120.71 138.642 121.405 111.51 127.017 89.8173C132.628 68.1269 143.144 51.914 158.75 42.9038C174.356 33.8936 193.655 32.8934 215.245 38.879C236.837 44.8652 260.682 57.8297 285.318 76.6841C334.59 114.391 386.948 175.593 430.692 251.36Z" stroke="url(#paint69_linear_83_2088)"/>
<path d="M431.821 253.354C474.236 329.872 499.729 406.274 506.674 467.928C510.147 498.757 508.979 525.873 502.989 547.464C497 569.053 486.203 585.08 470.442 593.817C454.681 602.553 435.368 603.216 413.885 596.855C392.401 590.493 368.786 577.114 344.482 557.833C295.876 519.271 244.594 457.165 202.179 380.646C159.764 304.128 134.27 227.726 127.325 166.072C123.853 135.243 125.021 108.127 131.011 86.5358C137 64.9466 147.797 48.9197 163.558 40.1832C179.319 31.4467 198.632 30.7835 220.114 37.145C241.599 43.5071 265.214 56.8858 289.517 76.1672C338.123 114.729 389.406 176.835 431.821 253.354Z" stroke="url(#paint70_linear_83_2088)"/>
<path d="M432.914 255.367C473.987 332.614 498.144 409.449 504.011 471.215C506.945 502.1 505.304 529.191 498.939 550.675C492.574 572.156 481.499 587.992 465.588 596.453C449.676 604.913 430.355 605.239 408.987 598.503C387.616 591.767 364.239 577.978 340.275 558.276C292.349 518.872 242.159 455.88 201.086 378.633C160.013 301.386 135.856 224.551 129.989 162.784C127.055 131.9 128.696 104.809 135.062 83.3249C141.427 61.8435 152.501 46.0075 168.413 37.5474C184.324 29.0873 203.645 28.7613 225.013 35.4967C246.384 42.2328 269.761 56.0216 293.725 75.7243C341.651 115.128 391.841 178.12 432.914 255.367Z" stroke="url(#paint71_linear_83_2088)"/>
<path d="M433.972 257.4C473.691 335.352 496.502 412.597 501.291 474.456C503.686 505.387 501.572 532.446 494.832 553.815C488.093 575.182 476.744 590.822 460.688 599.003C444.631 607.185 425.307 607.173 404.059 600.066C382.81 592.958 359.677 578.763 336.06 558.645C288.83 518.411 239.746 454.553 200.027 376.601C160.309 298.649 137.497 221.404 132.708 159.544C130.314 128.614 132.427 101.555 139.167 80.1856C145.906 58.8186 157.256 43.1783 173.312 34.9971C189.368 26.816 208.693 26.8272 229.94 33.9345C251.19 41.0426 274.323 55.2372 297.939 75.3552C345.17 115.589 394.253 179.448 433.972 257.4Z" stroke="url(#paint72_linear_83_2088)"/>
<path d="M434.995 259.45C473.347 338.084 494.807 415.715 498.515 477.648C500.37 508.616 497.784 535.634 490.672 556.882C483.562 578.128 471.941 593.568 455.744 601.468C439.548 609.368 420.226 609.019 399.106 601.542C377.984 594.064 355.102 579.468 331.84 558.941C285.319 517.889 237.357 453.183 199.005 374.55C160.653 295.916 139.193 218.285 135.485 156.352C133.63 125.384 136.216 98.3662 143.327 77.1178C150.438 55.8716 162.059 40.4318 178.256 32.5321C194.452 24.6325 213.774 24.9809 234.894 32.4579C256.016 39.9358 278.898 54.532 302.159 75.059C348.681 116.111 396.642 180.817 434.995 259.45Z" stroke="url(#paint73_linear_83_2088)"/>
<path d="M435.981 261.518C472.955 340.809 493.057 418.803 495.684 480.792C496.998 511.787 493.941 538.756 486.459 559.877C478.979 580.996 467.091 596.23 450.758 603.846C434.426 611.462 415.114 610.776 394.128 602.932C373.139 595.086 350.515 580.093 327.616 559.163C281.818 517.305 234.993 451.773 198.019 372.482C161.045 293.191 140.943 215.197 138.316 153.208C137.002 122.213 140.059 95.2444 147.54 74.1233C155.021 53.0045 166.909 37.7698 183.241 30.154C199.574 22.5382 218.886 23.2238 239.872 31.0683C260.861 38.9137 283.484 53.907 306.384 74.8369C352.182 116.695 399.007 182.227 435.981 261.518Z" stroke="url(#paint74_linear_83_2088)"/>
<path d="M436.931 263.603C472.516 343.527 491.253 421.86 492.798 483.885C493.571 514.899 490.044 541.81 482.195 562.797C474.347 583.782 462.194 598.807 445.732 606.137C429.269 613.467 409.972 612.444 389.126 604.234C368.277 596.024 345.919 580.638 323.388 559.312C278.328 516.661 232.653 450.321 197.069 370.397C161.484 290.473 142.746 212.14 141.202 150.115C140.429 119.101 143.956 92.1903 151.805 71.203C159.653 50.218 171.805 35.1931 188.268 27.8635C204.73 20.5339 224.028 21.5564 244.874 29.766C265.722 37.9764 288.081 53.3624 310.612 74.6887C355.672 117.34 401.347 183.679 436.931 263.603Z" stroke="url(#paint75_linear_83_2088)"/>
<path d="M437.844 265.705C472.028 346.237 489.396 424.885 489.858 486.928C490.089 517.951 486.093 544.796 477.879 565.643C469.666 586.488 457.253 601.298 440.665 608.34C424.078 615.381 404.801 614.022 384.101 605.449C363.399 596.876 341.312 581.103 319.157 559.386C274.848 515.955 230.339 448.829 196.154 368.296C161.97 287.763 144.602 209.115 144.14 147.072C143.909 116.05 147.905 89.2044 156.119 68.3573C164.332 47.5124 176.745 32.7019 193.333 25.6607C209.921 18.6196 229.197 19.9787 249.897 28.5509C270.599 37.1239 292.686 52.8977 314.841 74.614C359.15 118.045 403.66 185.172 437.844 265.705Z" stroke="url(#paint76_linear_83_2088)"/>
<path d="M438.722 267.822C471.495 348.939 487.488 427.878 486.867 489.919C486.557 520.941 482.093 547.713 473.516 568.413C464.941 589.112 452.271 603.703 435.563 610.454C418.855 617.205 399.605 615.509 379.058 606.577C358.509 597.644 336.7 581.487 314.927 559.388C271.383 515.19 228.052 447.297 195.279 366.179C162.505 285.062 146.512 206.123 147.133 144.082C147.444 113.06 151.908 86.2886 160.484 65.588C169.06 44.8897 181.729 30.298 198.437 23.5474C215.146 16.7969 234.395 18.4922 254.942 27.4243C275.492 36.3574 297.3 52.5142 319.073 74.6139C362.617 118.811 405.948 186.705 438.722 267.822Z" stroke="url(#paint77_linear_83_2088)"/>
<path d="M439.561 269.953C470.914 351.63 485.527 430.836 483.823 492.857C482.971 523.869 478.041 550.559 469.105 571.106C460.169 591.652 447.247 606.02 430.423 612.478C413.6 618.936 394.382 616.905 373.994 607.616C353.604 598.325 332.081 581.79 310.697 559.314C267.931 514.363 225.791 445.724 194.439 364.047C163.086 282.37 148.473 203.164 150.177 141.143C151.028 110.132 155.959 83.4421 164.895 62.8943C173.831 42.3487 186.753 27.9804 203.577 21.5225C220.4 15.0645 239.618 17.0956 260.006 26.3849C280.396 35.6752 301.919 52.2102 323.303 74.6865C366.069 119.637 408.209 188.277 439.561 269.953Z" stroke="url(#paint78_linear_83_2088)"/>
<path d="M440.364 272.1C470.286 354.311 483.514 433.76 480.729 495.742C479.336 526.734 473.94 553.334 464.647 573.722C455.354 594.109 442.183 608.249 425.249 614.413C408.316 620.576 389.137 618.21 368.914 608.566C348.689 598.922 327.458 582.013 306.469 559.167C264.494 513.477 223.559 444.113 193.636 361.901C163.714 279.69 150.486 200.241 153.271 138.259C154.664 107.267 160.06 80.6673 169.353 60.2787C178.646 39.8922 191.817 25.7516 208.751 19.5882C225.685 13.4249 244.863 15.791 265.086 25.4348C285.311 35.0795 306.542 51.9876 327.531 74.8337C369.506 120.524 410.441 189.888 440.364 272.1Z" stroke="url(#paint79_linear_83_2088)"/>
<path d="M441.128 274.259C469.612 356.981 481.451 436.648 477.584 498.572C475.651 529.535 469.792 556.036 460.143 576.26C450.496 596.481 437.081 610.39 420.042 616.256C403.003 622.123 383.869 619.423 363.817 609.428C343.764 599.431 322.831 582.155 302.244 558.946C261.073 512.531 221.354 442.462 192.871 359.741C164.388 277.02 152.548 197.352 156.415 135.428C158.349 104.465 164.208 77.9641 173.856 57.7407C183.503 37.5195 196.919 23.611 213.958 17.7441C230.996 11.8772 250.131 14.5777 270.182 24.5729C290.236 34.5692 311.169 51.8452 331.755 75.0541C372.927 121.47 412.645 191.538 441.128 274.259Z" stroke="url(#paint80_linear_83_2088)"/>
<path d="M441.855 276.432C468.89 359.638 479.338 439.5 474.39 501.347C471.917 532.272 465.596 558.667 455.597 578.719C445.598 598.769 431.942 612.441 414.803 618.01C397.665 623.578 378.58 620.544 358.706 610.2C338.83 599.856 318.202 582.217 298.024 558.652C257.669 511.525 219.179 440.774 192.144 357.569C165.109 274.363 154.661 194.501 159.608 132.654C162.082 101.729 168.403 75.3342 178.402 55.2822C188.401 35.2325 202.057 21.5602 219.196 15.9916C236.334 10.4229 255.419 13.457 275.293 23.8006C295.169 34.1453 315.797 51.7841 335.975 75.3487C376.33 122.476 414.82 193.227 441.855 276.432Z" stroke="url(#paint81_linear_83_2088)"/>
<path d="M442.544 278.618C468.123 362.283 477.175 442.315 471.149 504.066C468.136 534.943 461.356 561.224 451.008 581.098C440.661 600.97 426.768 614.402 409.535 619.671C392.302 624.939 373.273 621.573 353.583 610.884C333.89 600.194 313.573 582.198 293.809 558.284C254.283 510.46 217.034 439.048 191.455 355.383C165.876 271.718 156.824 191.686 162.85 129.935C165.863 99.0581 172.643 72.7776 182.991 52.9032C193.338 33.0311 207.231 19.5992 224.464 14.3305C241.697 9.06182 260.726 12.4285 280.416 23.1174C300.109 33.8074 320.426 51.8035 340.19 75.7167C379.716 123.541 416.965 194.953 442.544 278.618Z" stroke="url(#paint82_linear_83_2088)"/>
<path d="M443.195 280.814C467.31 364.913 474.964 445.091 467.861 506.728C464.31 537.547 457.072 563.706 446.378 583.396C435.686 603.085 421.561 616.272 404.239 621.239C386.916 626.206 367.949 622.508 348.448 611.477C328.945 600.445 308.946 582.097 289.602 557.843C250.916 509.336 214.919 437.285 190.804 353.186C166.689 269.088 159.035 188.91 166.138 127.273C169.689 96.4535 176.927 70.2953 187.621 50.6046C198.313 30.916 212.438 17.7286 229.76 12.7615C247.083 7.79441 266.05 11.4927 285.551 22.5236C305.054 33.5557 325.053 51.9036 344.397 76.1581C383.083 124.665 419.08 196.716 443.195 280.814Z" stroke="url(#paint83_linear_83_2088)"/>
<path d="M443.807 283.022C466.451 367.529 472.704 447.828 464.527 509.332C460.438 540.085 452.745 566.112 441.71 585.614C430.676 605.113 416.322 618.051 398.916 622.715C381.509 627.379 362.61 623.351 343.304 611.981C323.997 600.61 304.32 581.916 285.403 557.328C247.57 508.153 212.836 435.485 190.192 350.978C167.549 266.472 161.295 186.172 169.472 124.669C173.561 93.9161 181.254 67.8882 192.29 48.3871C203.324 28.8881 217.677 15.9493 235.084 11.2852C252.49 6.62117 271.39 10.6499 290.695 22.0194C310.003 33.3902 329.679 52.0844 348.596 76.6728C386.43 125.848 421.164 198.516 443.807 283.022Z" stroke="url(#paint84_linear_83_2088)"/>
<path d="M444.381 285.241C465.546 370.13 470.397 450.526 461.148 511.877C456.523 542.554 448.377 568.444 437.003 587.749C425.63 607.053 411.053 619.739 393.568 624.099C376.083 628.458 357.256 624.1 338.152 612.396C319.046 600.69 299.699 581.655 281.214 556.74C244.244 506.912 210.784 433.649 189.618 348.76C168.453 263.871 163.602 183.475 172.852 122.124C177.476 91.4469 185.623 65.5572 196.997 46.2517C208.369 26.9483 222.946 14.2619 240.432 9.90235C257.917 5.5428 276.743 9.90074 295.847 21.6055C314.953 33.3115 334.301 52.3462 352.786 77.261C389.755 127.089 423.216 200.352 444.381 285.241Z" stroke="url(#paint85_linear_83_2088)"/>
<path d="M444.916 287.469C464.597 372.714 468.044 453.183 457.725 514.363C452.566 544.955 443.969 570.698 432.26 589.802C420.552 608.904 405.756 621.334 388.197 625.388C370.638 629.442 351.891 624.756 332.994 612.72C314.095 600.682 295.083 581.312 277.035 556.079C240.941 505.613 208.764 431.778 189.084 346.532C169.403 261.287 165.956 180.818 176.275 119.637C181.434 89.046 190.031 63.3025 201.74 44.1984C213.448 25.0964 228.244 12.6663 245.803 8.61261C263.362 4.55889 282.109 9.24473 301.006 21.2811C319.905 33.3188 338.917 52.6883 356.965 77.9219C393.059 128.387 425.236 202.223 444.916 287.469Z" stroke="url(#paint86_linear_83_2088)"/>
<path d="M445.412 289.705C463.602 375.281 465.644 455.798 454.259 516.789C448.567 547.285 439.522 572.875 427.481 591.772C415.441 610.667 400.431 622.837 382.804 626.583C365.177 630.33 346.514 625.318 327.83 612.953C309.145 600.588 290.473 580.889 272.869 555.344C237.661 504.257 206.778 429.871 188.588 344.295C170.398 258.719 168.356 178.202 179.741 117.211C185.433 86.7144 194.478 61.1249 206.519 42.228C218.559 23.3333 233.569 11.1633 251.196 7.41667C268.823 3.67001 287.486 8.68233 306.17 21.0467C324.855 33.4124 343.527 53.1107 361.131 78.6554C396.339 129.743 427.223 204.129 445.412 289.705Z" stroke="url(#paint87_linear_83_2088)"/>
<path d="M445.868 291.951C462.562 377.831 463.198 458.371 450.751 519.154C444.527 549.547 435.037 574.975 422.668 593.658C410.301 612.34 395.08 624.246 377.39 627.685C359.701 631.123 341.128 625.786 322.663 613.097C304.196 600.408 285.871 580.386 268.715 554.538C234.404 502.844 204.824 427.93 188.13 342.05C171.437 256.169 170.8 175.629 183.248 114.846C189.472 84.4536 198.962 59.0258 211.331 40.342C223.698 21.6602 238.919 9.75408 256.608 6.31561C274.298 2.87714 292.87 8.21441 311.336 20.903C329.803 33.5929 348.127 53.614 365.284 79.4621C399.594 131.156 429.175 206.07 445.868 291.951Z" stroke="url(#paint88_linear_83_2088)"/>
<path d="M446.286 294.204C461.478 380.362 460.709 460.901 447.203 521.458C440.449 551.737 430.517 576.996 417.824 595.461C405.132 613.924 389.706 625.562 371.959 628.692C354.212 631.821 335.736 626.16 317.495 613.151C299.252 600.141 281.279 579.803 264.577 553.66C231.174 501.374 202.905 425.956 187.713 339.797C172.521 253.639 173.29 173.1 186.796 112.543C193.55 82.2635 203.482 57.0052 216.175 38.5401C228.867 20.077 244.293 8.43839 262.04 5.30917C279.787 2.17995 298.263 7.84055 316.504 20.8494C334.747 33.8597 352.72 54.1976 369.422 80.3412C402.825 132.626 431.094 208.045 446.286 294.204Z" stroke="url(#paint89_linear_83_2088)"/>
<path d="M446.665 296.463C460.351 382.874 458.176 463.387 443.615 523.699C436.334 553.856 425.962 578.937 412.949 597.178C399.937 615.416 384.31 626.784 366.511 629.603C348.713 632.422 330.338 626.44 312.327 613.115C294.314 599.788 276.699 579.139 260.455 552.708C227.969 499.848 201.021 423.947 187.335 337.537C173.649 251.126 175.824 170.613 190.385 110.301C197.666 80.1444 208.038 55.0633 221.051 36.8225C234.063 18.5837 249.69 7.21612 267.489 4.39709C285.287 1.57807 303.662 7.56027 321.673 20.8855C339.686 34.2122 357.301 54.8607 373.545 81.2918C406.031 134.152 432.979 210.053 446.665 296.463Z" stroke="url(#paint90_linear_83_2088)"/>
<path d="M447.003 298.73C459.179 385.366 455.6 465.829 439.988 525.877C432.182 555.903 421.374 580.799 408.044 598.81C394.716 616.819 378.893 627.912 361.048 630.42C343.203 632.928 324.935 626.626 307.159 612.988C289.381 599.349 272.13 578.396 256.35 551.686C224.791 498.267 199.172 421.907 186.996 335.271C174.82 248.635 178.4 168.172 194.011 108.124C201.817 78.0982 212.625 53.2019 225.955 35.191C239.283 17.1821 255.106 6.08891 272.951 3.58094C290.796 1.07298 309.064 7.37495 326.84 21.0125C344.618 34.6515 361.869 55.6043 377.649 82.3148C409.208 135.734 434.827 212.093 447.003 298.73Z" stroke="url(#paint91_linear_83_2088)"/>
<path d="M447.302 301.001C457.964 387.836 452.981 468.225 436.324 527.991C427.995 557.876 416.754 582.58 403.112 600.355C389.472 618.129 373.457 628.944 355.571 631.14C337.685 633.337 319.53 626.717 301.995 612.771C284.458 598.824 267.574 577.573 252.263 550.591C221.642 496.63 197.359 419.835 186.697 332.999C176.035 246.164 181.018 165.775 197.675 106.009C206.004 76.124 217.245 51.4201 230.887 33.6446C244.527 15.8711 260.542 5.05575 278.428 2.8596C296.314 0.663459 314.469 7.2833 332.004 21.229C349.541 35.1762 366.425 56.4269 381.736 83.4087C412.357 137.37 436.64 214.165 447.302 301.001Z" stroke="url(#paint92_linear_83_2088)"/>
<path d="M447.562 303.278C456.707 390.286 450.321 470.575 432.624 530.042C423.774 559.777 412.104 584.281 398.154 601.815C384.206 619.348 368.005 629.882 350.083 631.766C332.161 633.65 314.125 626.714 296.835 612.464C279.545 598.213 263.035 576.671 248.197 549.426C218.522 494.938 195.583 417.731 186.438 330.723C177.293 243.714 183.678 163.425 201.376 103.958C210.225 74.2238 221.896 49.7199 235.846 32.1852C249.794 14.6524 265.995 4.11816 283.917 2.23451C301.838 0.350858 319.875 7.28654 337.164 21.5361C354.455 35.7873 370.965 57.3294 385.803 84.5744C415.478 139.062 438.417 216.269 447.562 303.278Z" stroke="url(#paint93_linear_83_2088)"/>
<path d="M447.781 305.559C455.407 392.713 447.621 472.879 428.888 532.028C419.521 561.604 407.425 585.9 393.171 603.189C378.919 620.475 362.537 630.725 344.585 632.296C326.633 633.866 308.72 626.617 291.682 612.068C274.643 597.517 258.511 575.69 244.151 548.19C215.431 493.193 193.844 415.597 186.219 328.442C178.594 241.288 186.379 161.122 205.112 101.973C214.479 72.3976 226.575 48.1011 240.829 30.8125C255.081 13.5258 271.463 3.27599 289.415 1.7054C307.367 0.134814 325.28 7.38422 342.318 21.9334C359.357 36.4841 375.489 58.3111 389.849 85.8109C418.569 140.808 440.156 218.404 447.781 305.559Z" stroke="url(#paint94_linear_83_2088)"/>
<path d="M447.961 307.843C454.064 395.118 444.88 475.135 425.118 533.948C415.236 563.356 402.718 587.437 388.165 604.475C373.613 621.51 357.054 631.472 339.078 632.729C321.101 633.986 303.317 626.425 286.536 611.581C269.753 596.735 254.005 574.63 240.127 546.884C212.372 491.394 192.141 413.433 186.038 326.158C179.936 238.884 189.119 158.867 208.881 100.053C218.763 70.6458 231.281 46.564 245.835 29.5269C260.387 12.4915 276.945 2.52917 294.922 1.27213C312.898 0.0150839 330.682 7.57602 347.463 22.4203C364.246 37.2662 379.994 59.3714 393.872 87.1176C421.628 142.608 441.858 220.568 447.961 307.843Z" stroke="url(#paint95_linear_83_2088)"/>
<path d="M448.1 310.129C452.679 397.497 442.101 477.342 421.315 535.801C410.922 565.032 397.985 588.892 383.136 605.672C368.289 622.451 351.559 632.123 333.564 633.066C315.568 634.009 297.919 626.139 281.399 611.004C264.878 595.867 249.518 573.491 236.126 545.507C209.344 489.54 190.477 411.239 185.898 323.871C181.32 236.503 191.898 156.658 212.684 98.199C223.077 68.9683 236.014 45.1087 250.862 28.3281C265.709 11.5493 282.439 1.87747 300.435 0.934356C318.431 -0.00876237 336.08 7.86139 352.6 22.9963C369.121 38.1328 384.481 60.5095 397.873 88.4937C424.655 144.46 443.522 222.762 448.1 310.129Z" stroke="url(#paint96_linear_83_2088)"/>
<path d="M448.201 312.418C451.254 399.853 439.284 479.501 417.481 537.588C406.579 566.633 393.228 590.263 378.089 606.782C362.951 623.299 346.055 632.678 328.046 633.307C310.036 633.936 292.527 625.759 276.274 610.338C260.019 594.915 245.052 572.274 232.151 544.06C206.349 487.635 188.852 409.016 185.799 321.582C182.746 234.147 194.716 154.499 216.519 96.4116C227.421 67.3667 240.772 43.7365 255.911 27.2176C271.049 10.7006 287.945 1.32213 305.954 0.69322C323.964 0.0643145 341.473 8.24129 357.726 23.6622C373.98 39.0848 388.947 61.7261 401.849 89.9397C427.65 146.365 445.148 224.984 448.201 312.418Z" stroke="url(#paint97_linear_83_2088)"/>
<path d="M448.261 314.709C449.788 402.183 436.429 481.61 413.616 539.308C402.209 568.159 388.447 591.552 373.022 607.804C357.599 624.055 340.541 633.137 322.524 633.451C304.506 633.766 287.142 625.285 271.161 609.582C255.178 593.878 240.608 570.979 228.201 542.545C203.388 485.678 187.266 406.765 185.739 319.291C184.212 231.817 197.571 152.39 220.384 94.6915C231.791 65.8413 245.553 42.4477 260.978 26.1956C276.401 9.94519 293.459 0.863069 311.476 0.548569C329.494 0.234068 346.858 8.71537 362.839 24.4176C378.822 40.1215 393.392 63.0205 405.799 91.4551C430.612 148.322 446.734 227.234 448.261 314.709Z" stroke="url(#paint98_linear_83_2088)"/>
<path d="M448.28 317C448.28 404.488 433.537 483.669 409.721 540.961C397.812 569.607 383.644 592.757 367.938 608.738C352.233 624.717 335.02 633.5 316.999 633.5C298.979 633.5 281.766 624.717 266.061 608.738C250.354 592.757 236.187 569.607 224.278 540.961C200.461 483.669 185.718 404.488 185.718 317C185.718 229.512 200.461 150.331 224.278 93.0393C236.187 64.3925 250.354 41.2427 266.061 25.2622C281.766 9.28348 298.979 0.500435 316.999 0.500435C335.02 0.500435 352.233 9.28348 367.938 25.2622C383.644 41.2427 397.812 64.3925 409.721 93.0393C433.537 150.331 448.28 229.512 448.28 317Z" stroke="url(#paint99_linear_83_2088)"/>
<defs>
<linearGradient id="paint0_linear_83_2088" x1="329.676" y1="392.844" x2="305.155" y2="238.021" gradientUnits="userSpaceOnUse">
<stop stop-color="#FFC700"/>
<stop offset="1" stop-color="#00F0FF"/>
</linearGradient>
<linearGradient id="paint1_linear_83_2088" x1="328.351" y1="393.054" x2="306.535" y2="237.826" gradientUnits="userSpaceOnUse">
<stop stop-color="#FFC700"/>
<stop offset="1" stop-color="#00F0FF"/>
</linearGradient>
<linearGradient id="paint2_linear_83_2088" x1="327.022" y1="393.24" x2="307.918" y2="237.656" gradientUnits="userSpaceOnUse">
<stop stop-color="#FFC700"/>
<stop offset="1" stop-color="#00F0FF"/>
</linearGradient>
<linearGradient id="paint3_linear_83_2088" x1="325.69" y1="393.404" x2="309.305" y2="237.509" gradientUnits="userSpaceOnUse">
<stop stop-color="#FFC700"/>
<stop offset="1" stop-color="#00F0FF"/>
</linearGradient>
<linearGradient id="paint4_linear_83_2088" x1="324.355" y1="393.544" x2="310.693" y2="237.387" gradientUnits="userSpaceOnUse">
<stop stop-color="#FFC700"/>
<stop offset="1" stop-color="#00F0FF"/>
</linearGradient>
<linearGradient id="paint5_linear_83_2088" x1="323.018" y1="393.66" x2="312.084" y2="237.289" gradientUnits="userSpaceOnUse">
<stop stop-color="#FFC700"/>
<stop offset="1" stop-color="#00F0FF"/>
</linearGradient>
<linearGradient id="paint6_linear_83_2088" x1="321.679" y1="393.754" x2="313.475" y2="237.215" gradientUnits="userSpaceOnUse">
<stop stop-color="#FFC700"/>
<stop offset="1" stop-color="#00F0FF"/>
</linearGradient>
<linearGradient id="paint7_linear_83_2088" x1="320.339" y1="393.823" x2="314.869" y2="237.166" gradientUnits="userSpaceOnUse">
<stop stop-color="#FFC700"/>
<stop offset="1" stop-color="#00F0FF"/>
</linearGradient>
<linearGradient id="paint8_linear_83_2088" x1="318.998" y1="393.87" x2="316.262" y2="237.141" gradientUnits="userSpaceOnUse">
<stop stop-color="#FFC700"/>
<stop offset="1" stop-color="#00F0FF"/>
</linearGradient>
<linearGradient id="paint9_linear_83_2088" x1="317.656" y1="393.893" x2="317.656" y2="237.14" gradientUnits="userSpaceOnUse">
<stop stop-color="#FFC700"/>
<stop offset="1" stop-color="#00F0FF"/>
</linearGradient>
<linearGradient id="paint10_linear_83_2088" x1="316.314" y1="393.893" x2="319.05" y2="237.164" gradientUnits="userSpaceOnUse">
<stop stop-color="#FFC700"/>
<stop offset="1" stop-color="#00F0FF"/>
</linearGradient>
<linearGradient id="paint11_linear_83_2088" x1="314.972" y1="393.869" x2="320.443" y2="237.212" gradientUnits="userSpaceOnUse">
<stop stop-color="#FFC700"/>
<stop offset="1" stop-color="#00F0FF"/>
</linearGradient>
<linearGradient id="paint12_linear_83_2088" x1="313.631" y1="393.822" x2="321.835" y2="237.284" gradientUnits="userSpaceOnUse">
<stop stop-color="#FFC700"/>
<stop offset="1" stop-color="#00F0FF"/>
</linearGradient>
<linearGradient id="paint13_linear_83_2088" x1="312.291" y1="393.751" x2="323.225" y2="237.38" gradientUnits="userSpaceOnUse">
<stop stop-color="#FFC700"/>
<stop offset="1" stop-color="#00F0FF"/>
</linearGradient>
<linearGradient id="paint14_linear_83_2088" x1="310.952" y1="393.658" x2="324.614" y2="237.501" gradientUnits="userSpaceOnUse">
<stop stop-color="#FFC700"/>
<stop offset="1" stop-color="#00F0FF"/>
</linearGradient>
<linearGradient id="paint15_linear_83_2088" x1="309.615" y1="393.541" x2="326" y2="237.646" gradientUnits="userSpaceOnUse">
<stop stop-color="#FFC700"/>
<stop offset="1" stop-color="#00F0FF"/>
</linearGradient>
<linearGradient id="paint16_linear_83_2088" x1="308.28" y1="393.4" x2="327.384" y2="237.815" gradientUnits="userSpaceOnUse">
<stop stop-color="#FFC700"/>
<stop offset="1" stop-color="#00F0FF"/>
</linearGradient>
<linearGradient id="paint17_linear_83_2088" x1="306.948" y1="393.236" x2="328.764" y2="238.009" gradientUnits="userSpaceOnUse">
<stop stop-color="#FFC700"/>
<stop offset="1" stop-color="#00F0FF"/>
</linearGradient>
<linearGradient id="paint18_linear_83_2088" x1="305.619" y1="393.049" x2="330.141" y2="238.226" gradientUnits="userSpaceOnUse">
<stop stop-color="#FFC700"/>
<stop offset="1" stop-color="#00F0FF"/>
</linearGradient>
<linearGradient id="paint19_linear_83_2088" x1="304.294" y1="392.839" x2="331.514" y2="238.467" gradientUnits="userSpaceOnUse">
<stop stop-color="#FFC700"/>
<stop offset="1" stop-color="#00F0FF"/>
</linearGradient>
<linearGradient id="paint20_linear_83_2088" x1="302.972" y1="392.606" x2="332.882" y2="238.733" gradientUnits="userSpaceOnUse">
<stop stop-color="#FFC700"/>
<stop offset="1" stop-color="#00F0FF"/>
</linearGradient>
<linearGradient id="paint21_linear_83_2088" x1="301.655" y1="392.349" x2="334.246" y2="239.021" gradientUnits="userSpaceOnUse">
<stop stop-color="#FFC700"/>
<stop offset="1" stop-color="#00F0FF"/>
</linearGradient>
<linearGradient id="paint22_linear_83_2088" x1="300.342" y1="392.07" x2="335.604" y2="239.335" gradientUnits="userSpaceOnUse">
<stop stop-color="#FFC700"/>
<stop offset="1" stop-color="#00F0FF"/>
</linearGradient>
<linearGradient id="paint23_linear_83_2088" x1="299.034" y1="391.768" x2="336.956" y2="239.671" gradientUnits="userSpaceOnUse">
<stop stop-color="#FFC700"/>
<stop offset="1" stop-color="#00F0FF"/>
</linearGradient>
<linearGradient id="paint24_linear_83_2088" x1="297.732" y1="391.443" x2="338.303" y2="240.031" gradientUnits="userSpaceOnUse">
<stop stop-color="#FFC700"/>
<stop offset="1" stop-color="#00F0FF"/>
</linearGradient>
<linearGradient id="paint25_linear_83_2088" x1="296.436" y1="391.095" x2="339.643" y2="240.415" gradientUnits="userSpaceOnUse">
<stop stop-color="#FFC700"/>
<stop offset="1" stop-color="#00F0FF"/>
</linearGradient>
<linearGradient id="paint26_linear_83_2088" x1="295.146" y1="390.725" x2="340.977" y2="240.822" gradientUnits="userSpaceOnUse">
<stop stop-color="#FFC700"/>
<stop offset="1" stop-color="#00F0FF"/>
</linearGradient>
<linearGradient id="paint27_linear_83_2088" x1="293.863" y1="390.332" x2="342.302" y2="241.251" gradientUnits="userSpaceOnUse">
<stop stop-color="#FFC700"/>
<stop offset="1" stop-color="#00F0FF"/>
</linearGradient>
<linearGradient id="paint28_linear_83_2088" x1="292.586" y1="389.918" x2="343.62" y2="241.705" gradientUnits="userSpaceOnUse">
<stop stop-color="#FFC700"/>
<stop offset="1" stop-color="#00F0FF"/>
</linearGradient>
<linearGradient id="paint29_linear_83_2088" x1="291.317" y1="389.481" x2="344.93" y2="242.181" gradientUnits="userSpaceOnUse">
<stop stop-color="#FFC700"/>
<stop offset="1" stop-color="#00F0FF"/>
</linearGradient>
<linearGradient id="paint30_linear_83_2088" x1="290.057" y1="389.021" x2="346.232" y2="242.68" gradientUnits="userSpaceOnUse">
<stop stop-color="#FFC700"/>
<stop offset="1" stop-color="#00F0FF"/>
</linearGradient>
<linearGradient id="paint31_linear_83_2088" x1="288.804" y1="388.54" x2="347.524" y2="243.201" gradientUnits="userSpaceOnUse">
<stop stop-color="#FFC700"/>
<stop offset="1" stop-color="#00F0FF"/>
</linearGradient>
<linearGradient id="paint32_linear_83_2088" x1="287.559" y1="388.037" x2="348.808" y2="243.745" gradientUnits="userSpaceOnUse">
<stop stop-color="#FFC700"/>
<stop offset="1" stop-color="#00F0FF"/>
</linearGradient>
<linearGradient id="paint33_linear_83_2088" x1="286.324" y1="387.512" x2="350.081" y2="244.311" gradientUnits="userSpaceOnUse">
<stop stop-color="#FFC700"/>
<stop offset="1" stop-color="#00F0FF"/>
</linearGradient>
<linearGradient id="paint34_linear_83_2088" x1="285.098" y1="386.966" x2="351.345" y2="244.899" gradientUnits="userSpaceOnUse">
<stop stop-color="#FFC700"/>
<stop offset="1" stop-color="#00F0FF"/>
</linearGradient>
<linearGradient id="paint35_linear_83_2088" x1="283.882" y1="386.399" x2="352.598" y2="245.51" gradientUnits="userSpaceOnUse">
<stop stop-color="#FFC700"/>
<stop offset="1" stop-color="#00F0FF"/>
</linearGradient>
<linearGradient id="paint36_linear_83_2088" x1="282.676" y1="385.811" x2="353.84" y2="246.142" gradientUnits="userSpaceOnUse">
<stop stop-color="#FFC700"/>
<stop offset="1" stop-color="#00F0FF"/>
</linearGradient>
<linearGradient id="paint37_linear_83_2088" x1="281.48" y1="385.201" x2="355.071" y2="246.796" gradientUnits="userSpaceOnUse">
<stop stop-color="#FFC700"/>
<stop offset="1" stop-color="#00F0FF"/>
</linearGradient>
<linearGradient id="paint38_linear_83_2088" x1="280.295" y1="384.57" x2="356.29" y2="247.471" gradientUnits="userSpaceOnUse">
<stop stop-color="#FFC700"/>
<stop offset="1" stop-color="#00F0FF"/>
</linearGradient>
<linearGradient id="paint39_linear_83_2088" x1="279.122" y1="383.92" x2="357.498" y2="248.167" gradientUnits="userSpaceOnUse">
<stop stop-color="#FFC700"/>
<stop offset="1" stop-color="#00F0FF"/>
</linearGradient>
<linearGradient id="paint40_linear_83_2088" x1="277.959" y1="383.248" x2="358.693" y2="248.885" gradientUnits="userSpaceOnUse">
<stop stop-color="#FFC700"/>
<stop offset="1" stop-color="#00F0FF"/>
</linearGradient>
<linearGradient id="paint41_linear_83_2088" x1="276.809" y1="382.557" x2="359.875" y2="249.622" gradientUnits="userSpaceOnUse">
<stop stop-color="#FFC700"/>
<stop offset="1" stop-color="#00F0FF"/>
</linearGradient>
<linearGradient id="paint42_linear_83_2088" x1="275.671" y1="381.845" x2="361.045" y2="250.381" gradientUnits="userSpaceOnUse">
<stop stop-color="#FFC700"/>
<stop offset="1" stop-color="#00F0FF"/>
</linearGradient>
<linearGradient id="paint43_linear_83_2088" x1="274.546" y1="381.114" x2="362.201" y2="251.16" gradientUnits="userSpaceOnUse">
<stop stop-color="#FFC700"/>
<stop offset="1" stop-color="#00F0FF"/>
</linearGradient>
<linearGradient id="paint44_linear_83_2088" x1="273.433" y1="380.363" x2="363.343" y2="251.959" gradientUnits="userSpaceOnUse">
<stop stop-color="#FFC700"/>
<stop offset="1" stop-color="#00F0FF"/>
</linearGradient>
<linearGradient id="paint45_linear_83_2088" x1="272.334" y1="379.594" x2="364.471" y2="252.778" gradientUnits="userSpaceOnUse">
<stop stop-color="#FFC700"/>
<stop offset="1" stop-color="#00F0FF"/>
</linearGradient>
<linearGradient id="paint46_linear_83_2088" x1="271.249" y1="378.805" x2="365.585" y2="253.616" gradientUnits="userSpaceOnUse">
<stop stop-color="#FFC700"/>
<stop offset="1" stop-color="#00F0FF"/>
</linearGradient>
<linearGradient id="paint47_linear_83_2088" x1="270.177" y1="377.997" x2="366.684" y2="254.474" gradientUnits="userSpaceOnUse">
<stop stop-color="#FFC700"/>
<stop offset="1" stop-color="#00F0FF"/>
</linearGradient>
<linearGradient id="paint48_linear_83_2088" x1="269.12" y1="377.17" x2="367.768" y2="255.35" gradientUnits="userSpaceOnUse">
<stop stop-color="#FFC700"/>
<stop offset="1" stop-color="#00F0FF"/>
</linearGradient>
<linearGradient id="paint49_linear_83_2088" x1="268.077" y1="376.326" x2="368.836" y2="256.246" gradientUnits="userSpaceOnUse">
<stop stop-color="#FFC700"/>
<stop offset="1" stop-color="#00F0FF"/>
</linearGradient>
<linearGradient id="paint50_linear_83_2088" x1="267.048" y1="375.463" x2="369.888" y2="257.16" gradientUnits="userSpaceOnUse">
<stop stop-color="#FFC700"/>
<stop offset="1" stop-color="#00F0FF"/>
</linearGradient>
<linearGradient id="paint51_linear_83_2088" x1="266.036" y1="374.582" x2="370.925" y2="258.092" gradientUnits="userSpaceOnUse">
<stop stop-color="#FFC700"/>
<stop offset="1" stop-color="#00F0FF"/>
</linearGradient>
<linearGradient id="paint52_linear_83_2088" x1="265.039" y1="373.684" x2="371.944" y2="259.042" gradientUnits="userSpaceOnUse">
<stop stop-color="#FFC700"/>
<stop offset="1" stop-color="#00F0FF"/>
</linearGradient>
<linearGradient id="paint53_linear_83_2088" x1="264.057" y1="372.768" x2="372.947" y2="260.01" gradientUnits="userSpaceOnUse">
<stop stop-color="#FFC700"/>
<stop offset="1" stop-color="#00F0FF"/>
</linearGradient>
<linearGradient id="paint54_linear_83_2088" x1="263.092" y1="371.836" x2="373.933" y2="260.995" gradientUnits="userSpaceOnUse">
<stop stop-color="#FFC700"/>
<stop offset="1" stop-color="#00F0FF"/>
</linearGradient>
<linearGradient id="paint55_linear_83_2088" x1="262.143" y1="370.887" x2="374.902" y2="261.997" gradientUnits="userSpaceOnUse">
<stop stop-color="#FFC700"/>
<stop offset="1" stop-color="#00F0FF"/>
</linearGradient>
<linearGradient id="paint56_linear_83_2088" x1="261.212" y1="369.921" x2="375.854" y2="263.016" gradientUnits="userSpaceOnUse">
<stop stop-color="#FFC700"/>
<stop offset="1" stop-color="#00F0FF"/>
</linearGradient>
<linearGradient id="paint57_linear_83_2088" x1="260.296" y1="368.939" x2="376.786" y2="264.051" gradientUnits="userSpaceOnUse">
<stop stop-color="#FFC700"/>
<stop offset="1" stop-color="#00F0FF"/>
</linearGradient>
<linearGradient id="paint58_linear_83_2088" x1="259.398" y1="367.942" x2="377.701" y2="265.103" gradientUnits="userSpaceOnUse">
<stop stop-color="#FFC700"/>
<stop offset="1" stop-color="#00F0FF"/>
</linearGradient>
<linearGradient id="paint59_linear_83_2088" x1="258.518" y1="366.929" x2="378.597" y2="266.17" gradientUnits="userSpaceOnUse">
<stop stop-color="#FFC700"/>
<stop offset="1" stop-color="#00F0FF"/>
</linearGradient>
<linearGradient id="paint60_linear_83_2088" x1="257.655" y1="365.901" x2="379.475" y2="267.253" gradientUnits="userSpaceOnUse">
<stop stop-color="#FFC700"/>
<stop offset="1" stop-color="#00F0FF"/>
</linearGradient>
<linearGradient id="paint61_linear_83_2088" x1="256.812" y1="364.858" x2="380.335" y2="268.351" gradientUnits="userSpaceOnUse">
<stop stop-color="#FFC700"/>
<stop offset="1" stop-color="#00F0FF"/>
</linearGradient>
<linearGradient id="paint62_linear_83_2088" x1="255.985" y1="363.8" x2="381.174" y2="269.463" gradientUnits="userSpaceOnUse">
<stop stop-color="#FFC700"/>
<stop offset="1" stop-color="#00F0FF"/>
</linearGradient>
<linearGradient id="paint63_linear_83_2088" x1="255.177" y1="362.728" x2="381.993" y2="270.591" gradientUnits="userSpaceOnUse">
<stop stop-color="#FFC700"/>
<stop offset="1" stop-color="#00F0FF"/>
</linearGradient>
<linearGradient id="paint64_linear_83_2088" x1="254.389" y1="361.642" x2="382.794" y2="271.732" gradientUnits="userSpaceOnUse">
<stop stop-color="#FFC700"/>
<stop offset="1" stop-color="#00F0FF"/>
</linearGradient>
<linearGradient id="paint65_linear_83_2088" x1="253.619" y1="360.542" x2="383.573" y2="272.887" gradientUnits="userSpaceOnUse">
<stop stop-color="#FFC700"/>
<stop offset="1" stop-color="#00F0FF"/>
</linearGradient>
<linearGradient id="paint66_linear_83_2088" x1="252.87" y1="359.43" x2="384.334" y2="274.056" gradientUnits="userSpaceOnUse">
<stop stop-color="#FFC700"/>
<stop offset="1" stop-color="#00F0FF"/>
</linearGradient>
<linearGradient id="paint67_linear_83_2088" x1="252.138" y1="358.304" x2="385.072" y2="275.237" gradientUnits="userSpaceOnUse">
<stop stop-color="#FFC700"/>
<stop offset="1" stop-color="#00F0FF"/>
</linearGradient>
<linearGradient id="paint68_linear_83_2088" x1="251.427" y1="357.166" x2="385.791" y2="276.432" gradientUnits="userSpaceOnUse">
<stop stop-color="#FFC700"/>
<stop offset="1" stop-color="#00F0FF"/>
</linearGradient>
<linearGradient id="paint69_linear_83_2088" x1="250.736" y1="356.015" x2="386.489" y2="277.639" gradientUnits="userSpaceOnUse">
<stop stop-color="#FFC700"/>
<stop offset="1" stop-color="#00F0FF"/>
</linearGradient>
<linearGradient id="paint70_linear_83_2088" x1="250.066" y1="354.853" x2="387.165" y2="278.857" gradientUnits="userSpaceOnUse">
<stop stop-color="#FFC700"/>
<stop offset="1" stop-color="#00F0FF"/>
</linearGradient>
<linearGradient id="paint71_linear_83_2088" x1="249.416" y1="353.679" x2="387.82" y2="280.087" gradientUnits="userSpaceOnUse">
<stop stop-color="#FFC700"/>
<stop offset="1" stop-color="#00F0FF"/>
</linearGradient>
<linearGradient id="paint72_linear_83_2088" x1="248.785" y1="352.494" x2="388.453" y2="281.329" gradientUnits="userSpaceOnUse">
<stop stop-color="#FFC700"/>
<stop offset="1" stop-color="#00F0FF"/>
</linearGradient>
<linearGradient id="paint73_linear_83_2088" x1="248.177" y1="351.298" x2="389.065" y2="282.582" gradientUnits="userSpaceOnUse">
<stop stop-color="#FFC700"/>
<stop offset="1" stop-color="#00F0FF"/>
</linearGradient>
<linearGradient id="paint74_linear_83_2088" x1="247.588" y1="350.091" x2="389.655" y2="283.845" gradientUnits="userSpaceOnUse">
<stop stop-color="#FFC700"/>
<stop offset="1" stop-color="#00F0FF"/>
</linearGradient>
<linearGradient id="paint75_linear_83_2088" x1="247.022" y1="348.875" x2="390.223" y2="285.118" gradientUnits="userSpaceOnUse">
<stop stop-color="#FFC700"/>
<stop offset="1" stop-color="#00F0FF"/>
</linearGradient>
<linearGradient id="paint76_linear_83_2088" x1="246.475" y1="347.649" x2="390.767" y2="286.4" gradientUnits="userSpaceOnUse">
<stop stop-color="#FFC700"/>
<stop offset="1" stop-color="#00F0FF"/>
</linearGradient>
<linearGradient id="paint77_linear_83_2088" x1="245.952" y1="346.414" x2="391.291" y2="287.693" gradientUnits="userSpaceOnUse">
<stop stop-color="#FFC700"/>
<stop offset="1" stop-color="#00F0FF"/>
</linearGradient>
<linearGradient id="paint78_linear_83_2088" x1="245.449" y1="345.169" x2="391.791" y2="288.994" gradientUnits="userSpaceOnUse">
<stop stop-color="#FFC700"/>
<stop offset="1" stop-color="#00F0FF"/>
</linearGradient>
<linearGradient id="paint79_linear_83_2088" x1="244.969" y1="343.916" x2="392.268" y2="290.304" gradientUnits="userSpaceOnUse">
<stop stop-color="#FFC700"/>
<stop offset="1" stop-color="#00F0FF"/>
</linearGradient>
<linearGradient id="paint80_linear_83_2088" x1="244.51" y1="342.655" x2="392.723" y2="291.621" gradientUnits="userSpaceOnUse">
<stop stop-color="#FFC700"/>
<stop offset="1" stop-color="#00F0FF"/>
</linearGradient>
<linearGradient id="paint81_linear_83_2088" x1="244.073" y1="341.386" x2="393.154" y2="292.947" gradientUnits="userSpaceOnUse">
<stop stop-color="#FFC700"/>
<stop offset="1" stop-color="#00F0FF"/>
</linearGradient>
<linearGradient id="paint82_linear_83_2088" x1="243.658" y1="340.11" x2="393.562" y2="294.279" gradientUnits="userSpaceOnUse">
<stop stop-color="#FFC700"/>
<stop offset="1" stop-color="#00F0FF"/>
</linearGradient>
<linearGradient id="paint83_linear_83_2088" x1="243.266" y1="338.826" x2="393.947" y2="295.619" gradientUnits="userSpaceOnUse">
<stop stop-color="#FFC700"/>
<stop offset="1" stop-color="#00F0FF"/>
</linearGradient>
<linearGradient id="paint84_linear_83_2088" x1="242.897" y1="337.536" x2="394.309" y2="296.965" gradientUnits="userSpaceOnUse">
<stop stop-color="#FFC700"/>
<stop offset="1" stop-color="#00F0FF"/>
</linearGradient>
<linearGradient id="paint85_linear_83_2088" x1="242.549" y1="336.239" x2="394.646" y2="298.317" gradientUnits="userSpaceOnUse">
<stop stop-color="#FFC700"/>
<stop offset="1" stop-color="#00F0FF"/>
</linearGradient>
<linearGradient id="paint86_linear_83_2088" x1="242.225" y1="334.937" x2="394.961" y2="299.675" gradientUnits="userSpaceOnUse">
<stop stop-color="#FFC700"/>
<stop offset="1" stop-color="#00F0FF"/>
</linearGradient>
<linearGradient id="paint87_linear_83_2088" x1="241.924" y1="333.629" x2="395.251" y2="301.038" gradientUnits="userSpaceOnUse">
<stop stop-color="#FFC700"/>
<stop offset="1" stop-color="#00F0FF"/>
</linearGradient>
<linearGradient id="paint88_linear_83_2088" x1="241.644" y1="332.316" x2="395.517" y2="302.406" gradientUnits="userSpaceOnUse">
<stop stop-color="#FFC700"/>
<stop offset="1" stop-color="#00F0FF"/>
</linearGradient>
<linearGradient id="paint89_linear_83_2088" x1="241.389" y1="330.999" x2="395.76" y2="303.779" gradientUnits="userSpaceOnUse">
<stop stop-color="#FFC700"/>
<stop offset="1" stop-color="#00F0FF"/>
</linearGradient>
<linearGradient id="paint90_linear_83_2088" x1="241.156" y1="329.677" x2="395.979" y2="305.155" gradientUnits="userSpaceOnUse">
<stop stop-color="#FFC700"/>
<stop offset="1" stop-color="#00F0FF"/>
</linearGradient>
<linearGradient id="paint91_linear_83_2088" x1="240.946" y1="328.352" x2="396.174" y2="306.536" gradientUnits="userSpaceOnUse">
<stop stop-color="#FFC700"/>
<stop offset="1" stop-color="#00F0FF"/>
</linearGradient>
<linearGradient id="paint92_linear_83_2088" x1="240.76" y1="327.022" x2="396.344" y2="307.919" gradientUnits="userSpaceOnUse">
<stop stop-color="#FFC700"/>
<stop offset="1" stop-color="#00F0FF"/>
</linearGradient>
<linearGradient id="paint93_linear_83_2088" x1="240.597" y1="325.69" x2="396.491" y2="309.305" gradientUnits="userSpaceOnUse">
<stop stop-color="#FFC700"/>
<stop offset="1" stop-color="#00F0FF"/>
</linearGradient>
<linearGradient id="paint94_linear_83_2088" x1="240.457" y1="324.356" x2="396.613" y2="310.694" gradientUnits="userSpaceOnUse">
<stop stop-color="#FFC700"/>
<stop offset="1" stop-color="#00F0FF"/>
</linearGradient>
<linearGradient id="paint95_linear_83_2088" x1="240.34" y1="323.019" x2="396.711" y2="312.085" gradientUnits="userSpaceOnUse">
<stop stop-color="#FFC700"/>
<stop offset="1" stop-color="#00F0FF"/>
</linearGradient>
<linearGradient id="paint96_linear_83_2088" x1="240.246" y1="321.68" x2="396.784" y2="313.476" gradientUnits="userSpaceOnUse">
<stop stop-color="#FFC700"/>
<stop offset="1" stop-color="#00F0FF"/>
</linearGradient>
<linearGradient id="paint97_linear_83_2088" x1="240.177" y1="320.339" x2="396.834" y2="314.869" gradientUnits="userSpaceOnUse">
<stop stop-color="#FFC700"/>
<stop offset="1" stop-color="#00F0FF"/>
</linearGradient>
<linearGradient id="paint98_linear_83_2088" x1="240.13" y1="318.998" x2="396.859" y2="316.262" gradientUnits="userSpaceOnUse">
<stop stop-color="#FFC700"/>
<stop offset="1" stop-color="#00F0FF"/>
</linearGradient>
<linearGradient id="paint99_linear_83_2088" x1="240.106" y1="317.656" x2="396.859" y2="317.656" gradientUnits="userSpaceOnUse">
<stop stop-color="#FFC700"/>
<stop offset="1" stop-color="#00F0FF"/>
</linearGradient>
</defs>
</svg>
